<?xml version="1.0" encoding="UTF-8" standalone="no"?>
<!-- Created with Inkscape (http://www.inkscape.org/) -->

<svg
   width="210mm"
   height="100mm"
   viewBox="0 0 210 100"
   version="1.1"
   id="svg1"
   xml:space="preserve"
   xmlns="http://www.w3.org/2000/svg"
   xmlns:svg="http://www.w3.org/2000/svg"><defs
     id="defs1"><pattern
       patternUnits="userSpaceOnUse"
       width="1170.8796"
       height="213.46077"
       patternTransform="translate(-209.42749,70.062864)"
       preserveAspectRatio="xMidYMid"
       id="pattern1"><path
         style="stroke-width:3.77953"
         d="m 612.02042,213.27946 c -15.16736,-1.4674 -28.33116,-7.85995 -39.54047,-19.20144 -13.80375,-13.96652 -20.4817,-30.69456 -19.73672,-49.43985 0.65616,-16.51041 6.51278,-30.09188 18.23391,-42.28433 10.79824,-11.232416 23.02382,-17.71476 37.98281,-20.13944 4.34264,-0.703899 14.18181,-0.952554 18.61512,-0.470438 15.14925,1.647421 27.09097,7.313726 38.92255,18.468548 l 2.65769,2.50568 -0.0975,7.11295 -0.0975,7.11296 -1.91089,-2.58686 c -8.75834,-11.85675 -22.89158,-21.068862 -36.77031,-23.967079 -9.25723,-1.933153 -19.91611,-1.263534 -28.9988,1.82177 -11.99819,4.075691 -23.38922,13.205589 -30.96225,24.816229 -10.34105,15.8544 -11.51223,38.5149 -2.8824,55.77003 4.25486,8.50749 10.34516,15.78999 17.97217,21.49028 7.41288,5.54025 15.07636,8.9023 24.03248,10.54325 4.97631,0.91181 15.10533,0.84148 19.97631,-0.13871 8.58157,-1.72682 17.05841,-5.56611 24.58545,-11.13516 3.31102,-2.44978 10.65774,-9.87455 13.04058,-13.17922 l 1.91766,-2.6595 0.0911,7.13949 0.0911,7.13953 -3.45101,3.38022 c -9.82182,9.62045 -21.26997,15.35282 -34.811,17.43084 -3.81006,0.58469 -14.83506,0.85958 -18.85954,0.47021 z m 347.52968,-0.0227 c -2.62341,-0.43113 -5.35061,-1.99635 -7.52107,-4.3166 -1.89086,-2.02133 -2.0741,-2.13048 -5.39324,-3.21203 -9.29216,-3.02785 -19.19512,-9.30584 -26.89372,-17.04918 -15.9106,-16.00309 -23.53062,-37.26184 -21.02721,-58.66288 3.75847,-32.130106 25.12906,-54.689803 57.12506,-60.303573 8.17833,-1.434898 19.86894,-1.394268 26.69435,0.0926 3.66528,0.798539 8.95147,0.933354 11.79459,0.30085 3.17665,-0.706771 5.73984,-2.349996 7.37974,-4.730985 0.8823,-1.281034 1.3854,-1.739226 1.7929,-1.632681 0.4906,0.128504 0.5297,0.344315 0.2925,1.613707 -0.7707,4.125581 -3.4563,7.37692 -7.72448,9.351837 -4.77283,2.208415 -4.90787,2.219792 -22.94963,1.93508 -8.4412,-0.13304 -12.09676,0.150803 -18.72,1.45372 -12.74079,2.50662 -23.97117,7.822526 -32.71919,15.48771 -17.88136,15.668025 -24.74551,43.306205 -16.23254,65.359675 7.22499,18.71697 23.74447,33.49889 43.9166,39.29733 4.74561,1.36411 6.12801,2.11665 7.93168,4.31777 2.2814,2.78415 4.02901,3.08115 6.84004,1.16236 3.18618,-2.17489 3.7053,-2.34388 8.63671,-2.81144 10.84879,-1.0286 21.12835,-3.97848 31.54731,-9.05295 15.8401,-7.71481 26.254,-18.83702 30.8825,-32.98288 3.581,-10.9448 3.5588,-28.052 -0.05,-38.33031 -3.6265,-10.32918 -9.8671,-17.26454 -19.9533,-22.174636 -14.2692,-6.946431 -34.34534,-9.107867 -48.74632,-5.2481 -15.58961,4.178343 -26.56932,14.037616 -31.23179,28.044656 -1.72554,5.18397 -2.1685,8.22074 -2.2803,15.63402 -0.0824,5.45272 -0.17801,6.57641 -0.5684,6.65733 -0.54815,0.11377 -1.45263,-2.38337 -2.46947,-6.81732 -0.97705,-4.26043 -1.20775,-12.4408 -0.47478,-16.83447 3.51231,-21.053401 21.24548,-36.067309 45.67846,-38.674012 9.28766,-0.990878 20.22735,0.37115 30.6931,3.821065 26.05,8.587389 38.1805,27.266457 36.4426,56.116117 -0.7303,12.12242 -2.3566,19.23946 -6.2521,27.35993 -3.2545,6.78436 -7.3494,12.36162 -13.3127,18.1319 -12.6106,12.20255 -30.83852,20.71487 -48.54727,22.67135 -3.57199,0.39462 -3.81074,0.46854 -5.60209,1.73476 -2.85097,2.01521 -5.90763,2.79485 -8.97876,2.29013 z m -696.67012,-0.33109 c -19.39154,-2.0389 -36.89767,-12.98199 -48.53319,-30.33811 -5.1044,-7.61401 -8.33886,-15.71819 -10.03662,-25.14758 -0.80343,-4.46226 -0.97307,-14.17614 -0.3325,-19.04001 1.9687,-14.94837 8.25784,-27.13232 19.74173,-38.24576 5.97443,-5.781657 10.9846,-9.296617 18.04058,-12.656542 8.46278,-4.029808 16.47803,-5.899616 26.88,-6.270538 16.67724,-0.594709 30.53595,3.959093 43.50461,14.295156 2.97962,2.37479 8.92363,8.182334 8.76489,8.563724 -0.0602,0.14476 -6.58951,6.66479 -14.50951,14.48905 -17.91813,17.70161 -60.931,60.12896 -67.94061,67.01575 l -5.22063,5.12916 1.22063,1.07406 c 1.95706,1.72207 8.46044,5.92267 11.92367,7.70162 4.15755,2.13559 8.17925,3.67374 12.42737,4.75302 3.22436,0.81918 3.84127,0.87024 10.30958,0.85316 7.34308,-0.0189 10.05957,-0.34923 15.97378,-1.94041 12.25021,-3.29564 24.29594,-11.65017 32.66621,-22.65631 l 2.4,-3.15575 0.0864,6.99216 0.0864,6.99217 -2.64643,2.675 c -11.02573,11.14473 -24.38058,17.55923 -39.44642,18.94662 -4.07079,0.37493 -11.65206,0.36018 -15.36,-0.0302 z m -6.36963,-56.98983 c 49.90477,-49.51789 51.97725,-51.59278 51.86826,-51.92844 -0.16668,-0.51337 -3.61653,-3.2321 -6.77864,-5.342097 -3.35055,-2.235742 -9.45815,-5.260195 -13.10853,-6.491225 -3.57914,-1.20703 -8.42663,-2.310841 -12.10782,-2.75709 -4.55403,-0.552 -14.25517,-0.213921 -18.07018,0.629442 -11.3579,2.511345 -20.50266,7.865689 -29.69369,17.3859 -8.50538,8.81001 -13.2777,17.84009 -15.3961,29.13219 -0.77371,4.12422 -0.77223,14.8428 0.003,19.11545 1.8718,10.32124 5.69014,18.81528 12.11518,26.95067 0.93418,1.18288 1.78418,2.15486 1.88888,2.16 0.10471,0.004 13.2807,-12.9795 29.28,-28.8548 z m 200.53425,56.51993 c -17.34224,-2.10104 -32.90603,-11.55005 -44.23511,-26.85578 -7.77233,-10.50051 -11.7903,-21.27545 -12.8576,-34.48002 -0.89677,-11.09481 1.40509,-23.15709 6.26399,-32.82459 6.46017,-12.85354 17.91756,-24.248546 30.97672,-30.80803 19.9742,-10.032869 46.42937,-8.616718 64.72736,3.464958 8.17543,5.397996 15.65499,12.877872 21.0468,21.047662 11.54882,17.49906 13.33556,41.38938 4.58309,61.28001 -4.90332,11.14314 -14.19457,22.10702 -24.81869,29.28661 -8.33182,5.63052 -17.78881,9.01255 -28.12511,10.05816 -4.44942,0.4501 -13.14184,0.36661 -17.56145,-0.16895 z m 21.19536,-8.44676 c 14.56995,-3.11508 26.31241,-11.01834 35.59035,-23.954 11.74824,-16.37987 13.54792,-40.07203 4.42816,-58.29502 -7.10655,-14.20025 -19.80941,-25.548886 -33.82597,-30.21989 -6.55309,-2.183811 -9.1266,-2.555037 -17.71254,-2.555037 -8.58878,0 -11.12454,0.366237 -17.76,2.564145 -16.93277,5.609159 -32.17209,21.079632 -37.55361,38.123262 -2.80674,8.88915 -3.36162,20.00561 -1.46348,29.31988 4.49991,22.08147 23.29679,40.68362 45.45225,44.98144 4.78229,0.92768 4.87296,0.93358 12.60484,0.82148 5.69841,-0.0828 7.64982,-0.23244 10.24,-0.78626 z m 266.23998,8.59669 c -11.94157,-1.2556 -22.87745,-5.77111 -32.48119,-13.41173 -3.58972,-2.856 -9.83486,-9.31446 -12.69498,-13.12868 -7.36301,-9.81929 -11.52669,-20.14859 -12.92908,-32.0747 -0.55892,-4.75287 -0.22073,-15.19147 0.6398,-19.7506 1.39117,-7.37034 4.7114,-15.63311 8.83838,-21.99537 5.25272,-8.09775 14.24625,-16.89487 22.56087,-22.068174 6.85323,-4.264025 15.20652,-7.294601 23.82622,-8.644157 4.42575,-0.692901 15.5509,-0.765959 19.99998,-0.13115 14.06494,2.006362 25.73185,7.806425 36.43298,18.11229 11.61551,11.186491 18.09471,23.653951 20.01638,38.516071 2.7654,21.38755 -4.64886,41.87433 -20.71011,57.2253 -10.72744,10.25302 -22.81985,15.88399 -37.29313,17.36602 -3.80005,0.3891 -12.43888,0.38113 -16.20612,-0.0151 z m 19.83027,-8.58962 c 12.62831,-2.54098 23.69288,-9.26041 32.43281,-19.6961 9.44976,-11.28329 13.96871,-24.56477 13.39203,-39.36 -0.36094,-9.26014 -2.21552,-16.5374 -6.16168,-24.1779 -3.10594,-6.01365 -6.85251,-10.87865 -12.7019,-16.4936 -4.64171,-4.455643 -8.60803,-7.285451 -13.83152,-9.868154 -7.84872,-3.880743 -13.65532,-5.291452 -22.80269,-5.539955 -8.9893,-0.244158 -16.62682,1.123804 -23.75731,4.255294 -15.21502,6.68194 -28.06148,20.679725 -33.1028,36.069425 -2.10339,6.42112 -2.57284,9.70458 -2.57284,17.9949 0,6.40071 0.0956,7.8327 0.73262,10.98679 2.29138,11.34342 7.41468,20.87395 15.83316,29.45333 9.0816,9.25523 19.74539,14.79681 32.38987,16.83193 4.45383,0.71687 15.57188,0.46526 20.15025,-0.45596 z m -375.03024,8.08343 c -10.85193,-1.40807 -19.94505,-5.66952 -27.43235,-12.85599 -7.35652,-7.06099 -11.62193,-15.03001 -13.46774,-25.16171 l -0.69991,-3.84182 V 85.119987 0 h 4.48 4.48 l 0.16951,86.079987 0.16951,86.080023 0.681,2.71998 c 2.30335,9.19986 7.06345,16.47772 14.4503,22.09357 3.06722,2.33181 9.1761,5.26609 12.95439,6.22231 2.43478,0.61617 8.27521,1.4417 10.21527,1.44385 0.13202,1.5e-4 0.24,1.72827 0.24,3.84027 v 3.84 l -2.64,-0.048 c -1.452,-0.0265 -3.072,-0.10394 -3.6,-0.17235 z m 498.07998,-0.6268 c -7.72641,-0.72333 -12.77911,-2.04767 -18.40003,-4.82279 -12.96431,-6.40067 -21.7449,-17.483 -24.79124,-31.28995 -1.24286,-5.6329 -1.32106,-10.59477 -1.22306,-77.599977 l 0.0941,-64.480026 h 4.48003 4.47999 l 0.082,25.520013 0.082,25.520013 h 19.19807 19.19807 v 3.84 3.84 h -19.2 -19.2 l 10e-4,38.319987 c 10e-4,42.50676 -0.0522,41.2938 2.11022,47.76 1.89135,5.65576 4.61567,9.97723 9.07793,14.4 6.04611,5.99259 12.88456,9.41306 21.45052,10.72917 1.67203,0.25701 3.72401,0.46791 4.56,0.46893 l 1.52002,0.002 v 4.00002 3.99999 l -1.2,-0.051 c -0.65999,-0.0265 -1.704,-0.0983 -2.31999,-0.1561 z m 170.31915,-64.03272 0.081,-62.96001 4.3964,-0.0892 4.3963,-0.0892 0.083,12.728996 0.084,12.729024 0.8665,-1.64265 c 1.8151,-3.44115 5.5521,-8.599899 8.3489,-11.525442 8.0283,-8.39777 17.7215,-13.046891 30.6155,-14.684107 5.2166,-0.662362 14.8794,-0.506079 19.2795,0.311811 10.4857,1.949064 19.1725,6.277984 27.0318,13.470916 10.2159,9.349712 16.2792,21.455392 17.6821,35.303392 0.2139,2.11075 0.3356,17.12719 0.3356,41.36001 v 38.04609 h -4.467 -4.4671 l -0.1164,-39.6 c -0.1285,-43.59122 -0.023,-41.20592 -2.1422,-48.07998 -3.8642,-12.5286 -14.6206,-24.711792 -26.3272,-29.81937 -6.2862,-2.742614 -14.4393,-4.056151 -21.5199,-3.467074 -8.8347,0.735043 -15.6022,3.070035 -22.7133,7.836888 -11.854,7.946336 -19.1985,18.671276 -21.8106,31.849546 -0.4833,2.43844 -0.5522,6.78625 -0.665,42 l -0.1258,39.27999 h -4.4635 -4.4635 z M 0,146.88 V 84 h 4.6400013 4.6399974 l 0.015118,8.559987 0.015118,8.560023 0.8386323,-1.120023 c 0.46125,-0.615987 2.436824,-2.703987 4.390167,-4.639974 6.89122,-6.83006 15.693335,-11.594344 25.240853,-13.66201 2.663225,-0.576756 4.25653,-0.703861 8.700291,-0.693959 4.870631,0.01134 5.774921,0.102047 8.64,0.870728 4.361926,1.170444 10.077883,4.058683 14.25349,7.202192 6.276159,4.724901 11.137769,10.632869 14.519093,17.644046 l 1.699706,3.52433 0.725193,-2.00266 c 2.505529,-6.91925 7.770335,-13.883675 13.92251,-18.417067 8.34642,-6.150312 20.2826,-9.465298 32.16,-8.931667 11.14354,0.500674 20.34209,4.597191 28.51638,12.699553 6.06619,6.012813 9.47314,12.321451 11.54772,21.382831 l 0.71058,3.10367 0.10202,45.84 0.10203,45.84 h -4.48937 -4.48936 v -43.49684 c 0,-29.20887 -0.11275,-44.30733 -0.34318,-45.96416 -2.20343,-15.84204 -14.94717,-28.942187 -30.34496,-31.193652 -4.06926,-0.595011 -10.96458,-0.240378 -14.81773,0.762406 -6.09465,1.585928 -11.93049,4.963427 -17.07652,9.883049 -6.03941,5.773717 -9.525446,11.807017 -10.998407,19.034947 -0.646674,3.17329 -0.659207,4.06893 -0.659207,47.10452 V 209.76 h -4.633572 -4.633572 l -0.08644,-45.20001 -0.08644,-45.19998 -0.857983,-3.10586 C 78.754609,105.00491 69.659675,94.862362 59.127386,90.900699 54.761511,89.258494 52.76623,88.958135 46.400149,88.984781 c -5.309726,0.02268 -6.237309,0.109984 -8.998043,0.850923 -6.400849,1.717984 -11.769671,4.923968 -16.952337,10.123124 -5.187515,5.204032 -8.208208,10.194522 -10.117599,16.715342 l -0.8801536,3.00582 -0.09343,45.04002 -0.09343,45.03999 H 4.6326425 1.2472441e-4 Z"
         id="path1" /></pattern><pattern
       patternUnits="userSpaceOnUse"
       width="1170.8796"
       height="213.46077"
       patternTransform="translate(-211.19996,121.46453)"
       preserveAspectRatio="xMidYMid"
       id="pattern2"><path
         style="stroke-width:3.77953"
         d="m 612.02041,213.27946 c -15.16736,-1.4674 -28.33115,-7.85995 -39.54046,-19.20144 -13.80375,-13.96652 -20.4817,-30.69456 -19.73672,-49.43985 0.65616,-16.51041 6.51278,-30.09188 18.23391,-42.28433 10.79824,-11.232416 23.0238,-17.71476 37.98279,-20.13944 4.34264,-0.703899 14.18181,-0.952554 18.61512,-0.470438 15.14925,1.647421 27.09097,7.313726 38.92256,18.468548 l 2.65769,2.50568 -0.0975,7.11295 -0.0975,7.11296 -1.91089,-2.58686 c -8.75833,-11.85675 -22.89158,-21.068862 -36.7703,-23.967079 -9.25724,-1.933153 -19.91611,-1.263534 -28.99881,1.82177 -11.99818,4.075691 -23.3892,13.205589 -30.96223,24.816229 -10.34105,15.8544 -11.51223,38.5149 -2.8824,55.77003 4.25486,8.50749 10.34516,15.78999 17.97217,21.49028 7.41286,5.54025 15.07634,8.9023 24.03246,10.54325 4.97632,0.91181 15.10534,0.84148 19.97632,-0.13871 8.58157,-1.72682 17.0584,-5.56611 24.58545,-11.13516 3.31101,-2.44978 10.65774,-9.87455 13.04058,-13.17922 l 1.91765,-2.6595 0.0911,7.13949 0.0911,7.13953 -3.45101,3.38022 c -9.82182,9.62045 -21.26998,15.35282 -34.811,17.43084 -3.81007,0.58469 -14.83506,0.85958 -18.85954,0.47021 z m 347.52967,-0.0227 c -2.62341,-0.43113 -5.3506,-1.99635 -7.52107,-4.3166 -1.89086,-2.02133 -2.07409,-2.13048 -5.39323,-3.21203 -9.29216,-3.02785 -19.19513,-9.30584 -26.89372,-17.04918 -15.91061,-16.00309 -23.53062,-37.26184 -21.02722,-58.66288 3.75848,-32.130106 25.12906,-54.689803 57.12507,-60.303573 8.17833,-1.434898 19.86894,-1.394268 26.69435,0.0926 3.66527,0.798539 8.95147,0.933354 11.79458,0.30085 3.17666,-0.706771 5.73986,-2.349996 7.37976,-4.730985 0.8823,-1.281034 1.3854,-1.739226 1.7929,-1.632681 0.4906,0.128504 0.5297,0.344315 0.2925,1.613707 -0.7707,4.125581 -3.4563,7.37692 -7.7245,9.351837 -4.77282,2.208415 -4.90787,2.219792 -22.94963,1.93508 -8.4412,-0.13304 -12.09676,0.150803 -18.72,1.45372 -12.74079,2.50662 -23.97116,7.822526 -32.71918,15.48771 -17.88136,15.668025 -24.74551,43.306205 -16.23254,65.359675 7.22498,18.71697 23.74446,33.49889 43.9166,39.29733 4.74561,1.36411 6.12801,2.11665 7.93167,4.31777 2.2814,2.78415 4.02902,3.08115 6.84004,1.16236 3.18618,-2.17489 3.7053,-2.34388 8.63671,-2.81144 10.8488,-1.0286 21.12836,-3.97848 31.54733,-9.05295 15.8401,-7.71481 26.254,-18.83702 30.8825,-32.98288 3.581,-10.9448 3.5588,-28.052 -0.05,-38.33031 -3.6265,-10.32918 -9.8671,-17.26454 -19.9533,-22.174636 -14.2692,-6.946431 -34.34535,-9.107867 -48.74634,-5.2481 -15.5896,4.178343 -26.56932,14.037616 -31.23178,28.044656 -1.72555,5.18397 -2.16851,8.22074 -2.2803,15.63402 -0.0824,5.45272 -0.17802,6.57641 -0.56841,6.65733 -0.54814,0.11377 -1.45262,-2.38337 -2.46947,-6.81732 -0.97704,-4.26043 -1.20774,-12.4408 -0.47478,-16.83447 3.51232,-21.053401 21.24548,-36.067309 45.67846,-38.674012 9.28766,-0.990878 20.22735,0.37115 30.69312,3.821065 26.05,8.587389 38.1805,27.266457 36.4426,56.116117 -0.7303,12.12242 -2.3566,19.23946 -6.2521,27.35993 -3.2546,6.78436 -7.3494,12.36162 -13.3127,18.1319 -12.6106,12.20255 -30.83853,20.71487 -48.54728,22.67135 -3.572,0.39462 -3.81075,0.46854 -5.60209,1.73476 -2.85098,2.01521 -5.90763,2.79485 -8.97876,2.29013 z m -696.6701,-0.33109 c -19.39154,-2.0389 -36.89767,-12.98199 -48.53319,-30.33811 -5.1044,-7.61401 -8.33886,-15.71819 -10.03662,-25.14758 -0.80344,-4.46226 -0.97307,-14.17614 -0.3325,-19.04001 1.9687,-14.94837 8.25784,-27.13232 19.74173,-38.24576 5.97443,-5.781657 10.9846,-9.296617 18.04058,-12.656542 8.46278,-4.029808 16.47803,-5.899616 26.88,-6.270538 16.67724,-0.594709 30.53595,3.959093 43.50461,14.295156 2.97962,2.37479 8.92363,8.182334 8.76489,8.563724 -0.0602,0.14476 -6.58951,6.66479 -14.50951,14.48905 -17.91813,17.70161 -60.931,60.12896 -67.94061,67.01575 l -5.22063,5.12916 1.22063,1.07406 c 1.95706,1.72207 8.46044,5.92267 11.92367,7.70162 4.15755,2.13559 8.17925,3.67374 12.42737,4.75302 3.22436,0.81918 3.84127,0.87024 10.30958,0.85316 7.34308,-0.0189 10.05957,-0.34923 15.97378,-1.94041 12.25021,-3.29564 24.29594,-11.65017 32.66621,-22.65631 l 2.4,-3.15575 0.0864,6.99216 0.0864,6.99217 -2.64643,2.675 c -11.02573,11.14473 -24.38058,17.55923 -39.44642,18.94662 -4.07079,0.37493 -11.65206,0.36018 -15.36,-0.0302 z m -6.36963,-56.98983 c 49.90477,-49.51789 51.97725,-51.59278 51.86826,-51.92844 -0.16668,-0.51337 -3.61653,-3.2321 -6.77864,-5.342097 -3.35055,-2.235742 -9.45815,-5.260195 -13.10853,-6.491225 -3.57914,-1.20703 -8.42663,-2.310841 -12.10782,-2.75709 -4.55403,-0.552 -14.25517,-0.213921 -18.07018,0.629442 -11.3579,2.511345 -20.50266,7.865689 -29.69369,17.3859 -8.50538,8.81001 -13.2777,17.84009 -15.3961,29.13219 -0.77371,4.12422 -0.77223,14.8428 0.003,19.11545 1.8718,10.32124 5.69014,18.81528 12.11517,26.95067 0.93419,1.18288 1.78419,2.15486 1.88889,2.16 0.1047,0.004 13.2807,-12.9795 29.28,-28.8548 z m 200.53425,56.51993 c -17.34224,-2.10104 -32.90603,-11.55005 -44.23511,-26.85578 -7.77233,-10.50051 -11.7903,-21.27545 -12.8576,-34.48002 -0.89677,-11.09481 1.40509,-23.15709 6.26399,-32.82459 6.46017,-12.85354 17.91756,-24.248546 30.97672,-30.80803 19.9742,-10.032869 46.42937,-8.616718 64.72736,3.464958 8.17543,5.397996 15.65499,12.877872 21.0468,21.047662 11.54882,17.49906 13.33556,41.38938 4.58309,61.28001 -4.90332,11.14314 -14.19457,22.10702 -24.81869,29.28661 -8.33182,5.63052 -17.78881,9.01255 -28.12511,10.05816 -4.44942,0.4501 -13.14184,0.36661 -17.56145,-0.16895 z m 21.19536,-8.44676 c 14.56995,-3.11508 26.31241,-11.01834 35.59035,-23.954 11.74824,-16.37987 13.54792,-40.07203 4.42816,-58.29502 -7.10655,-14.20025 -19.80941,-25.548886 -33.82597,-30.21989 -6.55309,-2.183811 -9.1266,-2.555037 -17.71254,-2.555037 -8.58878,0 -11.12454,0.366237 -17.76,2.564145 -16.93277,5.609159 -32.17209,21.079632 -37.55361,38.123262 -2.80674,8.88915 -3.36162,20.00561 -1.46348,29.31988 4.49991,22.08147 23.29679,40.68362 45.45225,44.98144 4.78229,0.92768 4.87296,0.93358 12.60484,0.82148 5.69841,-0.0828 7.64982,-0.23244 10.24,-0.78626 z m 266.23996,8.59669 c -11.94157,-1.2556 -22.87744,-5.77111 -32.48118,-13.41173 -3.58972,-2.856 -9.83486,-9.31446 -12.69498,-13.12868 -7.36301,-9.81929 -11.52669,-20.14859 -12.92909,-32.0747 -0.55891,-4.75287 -0.22072,-15.19147 0.6398,-19.7506 1.39117,-7.37034 4.71141,-15.63311 8.83839,-21.99537 5.25271,-8.09775 14.24625,-16.89487 22.56087,-22.068174 6.85323,-4.264025 15.20651,-7.294601 23.82622,-8.644157 4.42575,-0.692901 15.5509,-0.765959 19.99997,-0.13115 14.06495,2.006362 25.73186,7.806425 36.43298,18.11229 11.61551,11.186491 18.09472,23.653951 20.01638,38.516071 2.76541,21.38755 -4.64886,41.87433 -20.71011,57.2253 -10.72743,10.25302 -22.81984,15.88399 -37.29313,17.36602 -3.80005,0.3891 -12.43888,0.38113 -16.20612,-0.0151 z m 19.83027,-8.58962 c 12.62831,-2.54098 23.69288,-9.26041 32.43281,-19.6961 9.44976,-11.28329 13.96872,-24.56477 13.39204,-39.36 -0.36095,-9.26014 -2.21552,-16.5374 -6.16169,-24.1779 -3.10594,-6.01365 -6.85251,-10.87865 -12.7019,-16.4936 -4.64171,-4.455643 -8.60802,-7.285451 -13.83152,-9.868154 -7.84871,-3.880743 -13.65532,-5.291452 -22.80268,-5.539955 -8.9893,-0.244158 -16.62682,1.123804 -23.75732,4.255294 -15.21501,6.68194 -28.06148,20.679725 -33.1028,36.069425 -2.10338,6.42112 -2.57284,9.70458 -2.57284,17.9949 0,6.40071 0.0956,7.8327 0.73263,10.98679 2.29137,11.34342 7.41467,20.87395 15.83315,29.45333 9.0816,9.25523 19.74539,14.79681 32.38988,16.83193 4.45383,0.71687 15.57188,0.46526 20.15024,-0.45596 z m -375.03022,8.08343 c -10.85193,-1.40807 -19.94505,-5.66952 -27.43235,-12.85599 -7.35652,-7.06099 -11.62193,-15.03001 -13.46774,-25.16171 l -0.69991,-3.84182 V 85.119987 0 h 4.48 4.48 l 0.16951,86.079987 0.16951,86.080023 0.681,2.71998 c 2.30335,9.19986 7.06345,16.47772 14.4503,22.09357 3.06722,2.33181 9.1761,5.26609 12.95439,6.22231 2.43478,0.61617 8.27521,1.4417 10.21527,1.44385 0.13202,1.5e-4 0.24,1.72827 0.24,3.84027 v 3.84 l -2.64,-0.048 c -1.452,-0.0265 -3.072,-0.10394 -3.6,-0.17235 z m 498.07996,-0.6268 c -7.72641,-0.72333 -12.77911,-2.04767 -18.40002,-4.82279 -12.96431,-6.40067 -21.74491,-17.483 -24.79125,-31.28995 -1.24286,-5.6329 -1.32105,-10.59477 -1.22305,-77.599977 l 0.0941,-64.480026 h 4.48002 4.47999 l 0.082,25.520013 0.082,25.520013 h 19.19808 19.19807 v 3.84 3.84 h -19.2 -19.2 l 0.001,38.319987 c 10e-4,42.50676 -0.0522,41.2938 2.11022,47.76 1.89136,5.65576 4.61568,9.97723 9.07794,14.4 6.04611,5.99259 12.88456,9.41306 21.45052,10.72917 1.67202,0.25701 3.724,0.46791 4.56,0.46893 l 1.52001,0.002 v 4.00002 3.99999 l -1.2,-0.051 c -0.65998,-0.0265 -1.704,-0.0983 -2.31999,-0.1561 z m 170.31917,-64.03272 0.081,-62.96001 4.3964,-0.0892 4.3963,-0.0892 0.083,12.728996 0.084,12.729024 0.8665,-1.64265 c 1.8151,-3.44115 5.5521,-8.599899 8.3489,-11.525442 8.0283,-8.39777 17.7215,-13.046891 30.6155,-14.684107 5.2166,-0.662362 14.8794,-0.506079 19.2795,0.311811 10.4857,1.949064 19.1725,6.277984 27.0318,13.470916 10.2159,9.349712 16.2792,21.455392 17.6821,35.303392 0.2139,2.11075 0.3356,17.12719 0.3356,41.36001 v 38.04609 h -4.4671 -4.467 l -0.1164,-39.6 c -0.1285,-43.59122 -0.023,-41.20592 -2.1422,-48.07998 -3.8642,-12.5286 -14.6206,-24.711792 -26.3272,-29.81937 -6.2862,-2.742614 -14.4393,-4.056151 -21.5199,-3.467074 -8.8348,0.735043 -15.6022,3.070035 -22.7133,7.836888 -11.854,7.946336 -19.1985,18.671276 -21.8106,31.849546 -0.4834,2.43844 -0.5522,6.78625 -0.665,42 l -0.1258,39.27999 h -4.4635 -4.4635 z M 0,146.88 V 84 h 4.6400013 4.6399974 l 0.015118,8.559987 0.015118,8.560023 0.8386323,-1.120023 c 0.46125,-0.615987 2.436824,-2.703987 4.390167,-4.639974 6.89122,-6.83006 15.693335,-11.594344 25.240853,-13.66201 2.663225,-0.576756 4.25653,-0.703861 8.700291,-0.693959 4.870631,0.01134 5.774921,0.102047 8.64,0.870728 4.361926,1.170444 10.077883,4.058683 14.25349,7.202192 6.276159,4.724901 11.137769,10.632869 14.519093,17.644046 l 1.699706,3.52433 0.725193,-2.00266 c 2.505529,-6.91925 7.770335,-13.883675 13.92251,-18.417067 8.34642,-6.150312 20.2826,-9.465298 32.16,-8.931667 11.14354,0.500674 20.34209,4.597191 28.51638,12.699553 6.06619,6.012813 9.47314,12.321451 11.54772,21.382831 l 0.71058,3.10367 0.10202,45.84 0.10203,45.84 h -4.48937 -4.48936 v -43.49684 c 0,-29.20887 -0.11275,-44.30733 -0.34318,-45.96416 -2.20343,-15.84204 -14.94717,-28.942187 -30.34496,-31.193652 -4.06926,-0.595011 -10.96458,-0.240378 -14.81773,0.762406 -6.09465,1.585928 -11.93049,4.963427 -17.07652,9.883049 -6.03941,5.773717 -9.525446,11.807017 -10.998407,19.034947 -0.646674,3.17329 -0.659207,4.06893 -0.659207,47.10452 V 209.76 h -4.633572 -4.633572 l -0.08644,-45.20001 -0.08644,-45.19998 -0.857983,-3.10586 C 78.754609,105.00491 69.659675,94.862362 59.127386,90.900699 54.761511,89.258494 52.76623,88.958135 46.400149,88.984781 c -5.309726,0.02268 -6.237309,0.109984 -8.998043,0.850923 -6.400849,1.717984 -11.769671,4.923968 -16.952337,10.123124 -5.187515,5.204032 -8.208208,10.194522 -10.117599,16.715342 l -0.8801536,3.00582 -0.09343,45.04002 -0.09343,45.03999 H 4.6326425 1.2472441e-4 Z"
         id="path2" /></pattern><pattern
       patternUnits="userSpaceOnUse"
       width="1170.8796"
       height="213.46077"
       patternTransform="translate(-211.19996,98.422405)"
       preserveAspectRatio="xMidYMid"
       id="pattern14"><path
         style="stroke-width:3.77953"
         d="m 612.02041,213.27946 c -15.16736,-1.4674 -28.33115,-7.85995 -39.54046,-19.20144 -13.80375,-13.96652 -20.4817,-30.69456 -19.73672,-49.43985 0.65616,-16.51041 6.51278,-30.09188 18.23391,-42.28433 10.79824,-11.232416 23.0238,-17.71476 37.98279,-20.13944 4.34264,-0.703899 14.18181,-0.952554 18.61512,-0.470438 15.14925,1.647421 27.09097,7.313726 38.92256,18.468548 l 2.65769,2.50568 -0.0975,7.11295 -0.0975,7.11296 -1.91089,-2.58686 c -8.75833,-11.85675 -22.89158,-21.068862 -36.7703,-23.967079 -9.25724,-1.933153 -19.91611,-1.263534 -28.99881,1.82177 -11.99818,4.075691 -23.3892,13.205589 -30.96223,24.816229 -10.34105,15.8544 -11.51223,38.5149 -2.8824,55.77003 4.25486,8.50749 10.34516,15.78999 17.97217,21.49028 7.41286,5.54025 15.07634,8.9023 24.03246,10.54325 4.97632,0.91181 15.10534,0.84148 19.97632,-0.13871 8.58157,-1.72682 17.0584,-5.56611 24.58545,-11.13516 3.31101,-2.44978 10.65774,-9.87455 13.04058,-13.17922 l 1.91765,-2.6595 0.0911,7.13949 0.0911,7.13953 -3.45101,3.38022 c -9.82182,9.62045 -21.26998,15.35282 -34.811,17.43084 -3.81007,0.58469 -14.83506,0.85958 -18.85954,0.47021 z m 347.52967,-0.0227 c -2.62341,-0.43113 -5.3506,-1.99635 -7.52107,-4.3166 -1.89086,-2.02133 -2.07409,-2.13048 -5.39323,-3.21203 -9.29216,-3.02785 -19.19513,-9.30584 -26.89372,-17.04918 -15.91061,-16.00309 -23.53062,-37.26184 -21.02722,-58.66288 3.75848,-32.130106 25.12906,-54.689803 57.12507,-60.303573 8.17833,-1.434898 19.86894,-1.394268 26.69435,0.0926 3.66527,0.798539 8.95147,0.933354 11.79458,0.30085 3.17666,-0.706771 5.73986,-2.349996 7.37976,-4.730985 0.8823,-1.281034 1.3854,-1.739226 1.7929,-1.632681 0.4906,0.128504 0.5297,0.344315 0.2925,1.613707 -0.7707,4.125581 -3.4563,7.37692 -7.7245,9.351837 -4.77282,2.208415 -4.90787,2.219792 -22.94963,1.93508 -8.4412,-0.13304 -12.09676,0.150803 -18.72,1.45372 -12.74079,2.50662 -23.97116,7.822526 -32.71918,15.48771 -17.88136,15.668025 -24.74551,43.306205 -16.23254,65.359675 7.22498,18.71697 23.74446,33.49889 43.9166,39.29733 4.74561,1.36411 6.12801,2.11665 7.93167,4.31777 2.2814,2.78415 4.02902,3.08115 6.84004,1.16236 3.18618,-2.17489 3.7053,-2.34388 8.63671,-2.81144 10.8488,-1.0286 21.12836,-3.97848 31.54733,-9.05295 15.8401,-7.71481 26.254,-18.83702 30.8825,-32.98288 3.581,-10.9448 3.5588,-28.052 -0.05,-38.33031 -3.6265,-10.32918 -9.8671,-17.26454 -19.9533,-22.174636 -14.2692,-6.946431 -34.34535,-9.107867 -48.74634,-5.2481 -15.5896,4.178343 -26.56932,14.037616 -31.23178,28.044656 -1.72555,5.18397 -2.16851,8.22074 -2.2803,15.63402 -0.0824,5.45272 -0.17802,6.57641 -0.56841,6.65733 -0.54814,0.11377 -1.45262,-2.38337 -2.46947,-6.81732 -0.97704,-4.26043 -1.20774,-12.4408 -0.47478,-16.83447 3.51232,-21.053401 21.24548,-36.067309 45.67846,-38.674012 9.28766,-0.990878 20.22735,0.37115 30.69312,3.821065 26.05,8.587389 38.1805,27.266457 36.4426,56.116117 -0.7303,12.12242 -2.3566,19.23946 -6.2521,27.35993 -3.2546,6.78436 -7.3494,12.36162 -13.3127,18.1319 -12.6106,12.20255 -30.83853,20.71487 -48.54728,22.67135 -3.572,0.39462 -3.81075,0.46854 -5.60209,1.73476 -2.85098,2.01521 -5.90763,2.79485 -8.97876,2.29013 z m -696.6701,-0.33109 c -19.39154,-2.0389 -36.89767,-12.98199 -48.53319,-30.33811 -5.1044,-7.61401 -8.33886,-15.71819 -10.03662,-25.14758 -0.80344,-4.46226 -0.97307,-14.17614 -0.3325,-19.04001 1.9687,-14.94837 8.25784,-27.13232 19.74173,-38.24576 5.97443,-5.781657 10.9846,-9.296617 18.04058,-12.656542 8.46278,-4.029808 16.47803,-5.899616 26.88,-6.270538 16.67724,-0.594709 30.53595,3.959093 43.50461,14.295156 2.97962,2.37479 8.92363,8.182334 8.76489,8.563724 -0.0602,0.14476 -6.58951,6.66479 -14.50951,14.48905 -17.91813,17.70161 -60.931,60.12896 -67.94061,67.01575 l -5.22063,5.12916 1.22063,1.07406 c 1.95706,1.72207 8.46044,5.92267 11.92367,7.70162 4.15755,2.13559 8.17925,3.67374 12.42737,4.75302 3.22436,0.81918 3.84127,0.87024 10.30958,0.85316 7.34308,-0.0189 10.05957,-0.34923 15.97378,-1.94041 12.25021,-3.29564 24.29594,-11.65017 32.66621,-22.65631 l 2.4,-3.15575 0.0864,6.99216 0.0864,6.99217 -2.64643,2.675 c -11.02573,11.14473 -24.38058,17.55923 -39.44642,18.94662 -4.07079,0.37493 -11.65206,0.36018 -15.36,-0.0302 z m -6.36963,-56.98983 c 49.90477,-49.51789 51.97725,-51.59278 51.86826,-51.92844 -0.16668,-0.51337 -3.61653,-3.2321 -6.77864,-5.342097 -3.35055,-2.235742 -9.45815,-5.260195 -13.10853,-6.491225 -3.57914,-1.20703 -8.42663,-2.310841 -12.10782,-2.75709 -4.55403,-0.552 -14.25517,-0.213921 -18.07018,0.629442 -11.3579,2.511345 -20.50266,7.865689 -29.69369,17.3859 -8.50538,8.81001 -13.2777,17.84009 -15.3961,29.13219 -0.77371,4.12422 -0.77223,14.8428 0.003,19.11545 1.8718,10.32124 5.69014,18.81528 12.11517,26.95067 0.93419,1.18288 1.78419,2.15486 1.88889,2.16 0.1047,0.004 13.2807,-12.9795 29.28,-28.8548 z m 200.53425,56.51993 c -17.34224,-2.10104 -32.90603,-11.55005 -44.23511,-26.85578 -7.77233,-10.50051 -11.7903,-21.27545 -12.8576,-34.48002 -0.89677,-11.09481 1.40509,-23.15709 6.26399,-32.82459 6.46017,-12.85354 17.91756,-24.248546 30.97672,-30.80803 19.9742,-10.032869 46.42937,-8.616718 64.72736,3.464958 8.17543,5.397996 15.65499,12.877872 21.0468,21.047662 11.54882,17.49906 13.33556,41.38938 4.58309,61.28001 -4.90332,11.14314 -14.19457,22.10702 -24.81869,29.28661 -8.33182,5.63052 -17.78881,9.01255 -28.12511,10.05816 -4.44942,0.4501 -13.14184,0.36661 -17.56145,-0.16895 z m 21.19536,-8.44676 c 14.56995,-3.11508 26.31241,-11.01834 35.59035,-23.954 11.74824,-16.37987 13.54792,-40.07203 4.42816,-58.29502 -7.10655,-14.20025 -19.80941,-25.548886 -33.82597,-30.21989 -6.55309,-2.183811 -9.1266,-2.555037 -17.71254,-2.555037 -8.58878,0 -11.12454,0.366237 -17.76,2.564145 -16.93277,5.609159 -32.17209,21.079632 -37.55361,38.123262 -2.80674,8.88915 -3.36162,20.00561 -1.46348,29.31988 4.49991,22.08147 23.29679,40.68362 45.45225,44.98144 4.78229,0.92768 4.87296,0.93358 12.60484,0.82148 5.69841,-0.0828 7.64982,-0.23244 10.24,-0.78626 z m 266.23996,8.59669 c -11.94157,-1.2556 -22.87744,-5.77111 -32.48118,-13.41173 -3.58972,-2.856 -9.83486,-9.31446 -12.69498,-13.12868 -7.36301,-9.81929 -11.52669,-20.14859 -12.92909,-32.0747 -0.55891,-4.75287 -0.22072,-15.19147 0.6398,-19.7506 1.39117,-7.37034 4.71141,-15.63311 8.83839,-21.99537 5.25271,-8.09775 14.24625,-16.89487 22.56087,-22.068174 6.85323,-4.264025 15.20651,-7.294601 23.82622,-8.644157 4.42575,-0.692901 15.5509,-0.765959 19.99997,-0.13115 14.06495,2.006362 25.73186,7.806425 36.43298,18.11229 11.61551,11.186491 18.09472,23.653951 20.01638,38.516071 2.76541,21.38755 -4.64886,41.87433 -20.71011,57.2253 -10.72743,10.25302 -22.81984,15.88399 -37.29313,17.36602 -3.80005,0.3891 -12.43888,0.38113 -16.20612,-0.0151 z m 19.83027,-8.58962 c 12.62831,-2.54098 23.69288,-9.26041 32.43281,-19.6961 9.44976,-11.28329 13.96872,-24.56477 13.39204,-39.36 -0.36095,-9.26014 -2.21552,-16.5374 -6.16169,-24.1779 -3.10594,-6.01365 -6.85251,-10.87865 -12.7019,-16.4936 -4.64171,-4.455643 -8.60802,-7.285451 -13.83152,-9.868154 -7.84871,-3.880743 -13.65532,-5.291452 -22.80268,-5.539955 -8.9893,-0.244158 -16.62682,1.123804 -23.75732,4.255294 -15.21501,6.68194 -28.06148,20.679725 -33.1028,36.069425 -2.10338,6.42112 -2.57284,9.70458 -2.57284,17.9949 0,6.40071 0.0956,7.8327 0.73263,10.98679 2.29137,11.34342 7.41467,20.87395 15.83315,29.45333 9.0816,9.25523 19.74539,14.79681 32.38988,16.83193 4.45383,0.71687 15.57188,0.46526 20.15024,-0.45596 z m -375.03022,8.08343 c -10.85193,-1.40807 -19.94505,-5.66952 -27.43235,-12.85599 -7.35652,-7.06099 -11.62193,-15.03001 -13.46774,-25.16171 l -0.69991,-3.84182 V 85.119987 0 h 4.48 4.48 l 0.16951,86.079987 0.16951,86.080023 0.681,2.71998 c 2.30335,9.19986 7.06345,16.47772 14.4503,22.09357 3.06722,2.33181 9.1761,5.26609 12.95439,6.22231 2.43478,0.61617 8.27521,1.4417 10.21527,1.44385 0.13202,1.5e-4 0.24,1.72827 0.24,3.84027 v 3.84 l -2.64,-0.048 c -1.452,-0.0265 -3.072,-0.10394 -3.6,-0.17235 z m 498.07996,-0.6268 c -7.72641,-0.72333 -12.77911,-2.04767 -18.40002,-4.82279 -12.96431,-6.40067 -21.74491,-17.483 -24.79125,-31.28995 -1.24286,-5.6329 -1.32105,-10.59477 -1.22305,-77.599977 l 0.0941,-64.480026 h 4.48002 4.47999 l 0.082,25.520013 0.082,25.520013 h 19.19808 19.19807 v 3.84 3.84 h -19.2 -19.2 l 0.001,38.319987 c 10e-4,42.50676 -0.0522,41.2938 2.11022,47.76 1.89136,5.65576 4.61568,9.97723 9.07794,14.4 6.04611,5.99259 12.88456,9.41306 21.45052,10.72917 1.67202,0.25701 3.724,0.46791 4.56,0.46893 l 1.52001,0.002 v 4.00002 3.99999 l -1.2,-0.051 c -0.65998,-0.0265 -1.704,-0.0983 -2.31999,-0.1561 z m 170.31917,-64.03272 0.081,-62.96001 4.3964,-0.0892 4.3963,-0.0892 0.083,12.728996 0.084,12.729024 0.8665,-1.64265 c 1.8151,-3.44115 5.5521,-8.599899 8.3489,-11.525442 8.0283,-8.39777 17.7215,-13.046891 30.6155,-14.684107 5.2166,-0.662362 14.8794,-0.506079 19.2795,0.311811 10.4857,1.949064 19.1725,6.277984 27.0318,13.470916 10.2159,9.349712 16.2792,21.455392 17.6821,35.303392 0.2139,2.11075 0.3356,17.12719 0.3356,41.36001 v 38.04609 h -4.4671 -4.467 l -0.1164,-39.6 c -0.1285,-43.59122 -0.023,-41.20592 -2.1422,-48.07998 -3.8642,-12.5286 -14.6206,-24.711792 -26.3272,-29.81937 -6.2862,-2.742614 -14.4393,-4.056151 -21.5199,-3.467074 -8.8348,0.735043 -15.6022,3.070035 -22.7133,7.836888 -11.854,7.946336 -19.1985,18.671276 -21.8106,31.849546 -0.4834,2.43844 -0.5522,6.78625 -0.665,42 l -0.1258,39.27999 h -4.4635 -4.4635 z M 0,146.88 V 84 h 4.6400013 4.6399974 l 0.015118,8.559987 0.015118,8.560023 0.8386323,-1.120023 c 0.46125,-0.615987 2.436824,-2.703987 4.390167,-4.639974 6.89122,-6.83006 15.693335,-11.594344 25.240853,-13.66201 2.663225,-0.576756 4.25653,-0.703861 8.700291,-0.693959 4.870631,0.01134 5.774921,0.102047 8.64,0.870728 4.361926,1.170444 10.077883,4.058683 14.25349,7.202192 6.276159,4.724901 11.137769,10.632869 14.519093,17.644046 l 1.699706,3.52433 0.725193,-2.00266 c 2.505529,-6.91925 7.770335,-13.883675 13.92251,-18.417067 8.34642,-6.150312 20.2826,-9.465298 32.16,-8.931667 11.14354,0.500674 20.34209,4.597191 28.51638,12.699553 6.06619,6.012813 9.47314,12.321451 11.54772,21.382831 l 0.71058,3.10367 0.10202,45.84 0.10203,45.84 h -4.48937 -4.48936 v -43.49684 c 0,-29.20887 -0.11275,-44.30733 -0.34318,-45.96416 -2.20343,-15.84204 -14.94717,-28.942187 -30.34496,-31.193652 -4.06926,-0.595011 -10.96458,-0.240378 -14.81773,0.762406 -6.09465,1.585928 -11.93049,4.963427 -17.07652,9.883049 -6.03941,5.773717 -9.525446,11.807017 -10.998407,19.034947 -0.646674,3.17329 -0.659207,4.06893 -0.659207,47.10452 V 209.76 h -4.633572 -4.633572 l -0.08644,-45.20001 -0.08644,-45.19998 -0.857983,-3.10586 C 78.754609,105.00491 69.659675,94.862362 59.127386,90.900699 54.761511,89.258494 52.76623,88.958135 46.400149,88.984781 c -5.309726,0.02268 -6.237309,0.109984 -8.998043,0.850923 -6.400849,1.717984 -11.769671,4.923968 -16.952337,10.123124 -5.187515,5.204032 -8.208208,10.194522 -10.117599,16.715342 l -0.8801536,3.00582 -0.09343,45.04002 -0.09343,45.03999 H 4.6326425 1.2472441e-4 Z"
         id="path3" /></pattern></defs><g
     id="layer1"><g
       id="g130"
       transform="matrix(0.64139987,0,0,0.64139987,40.888519,-81.166375)"
       style="stroke-width:1.55909"><path
         style="opacity:1;fill:#546e7a;fill-opacity:1;stroke-width:1.55909"
         d="m -54.942056,215.95132 v -16.637 h 1.227667 1.227666 l 0.004,2.26483 0.004,2.26484 0.221888,-0.29634 c 0.122039,-0.16298 0.644743,-0.71543 1.161565,-1.22766 1.823302,-1.80712 4.152195,-3.06767 6.678309,-3.61474 0.704645,-0.1526 1.126207,-0.18623 2.301952,-0.18361 1.288688,0.003 1.527948,0.027 2.286,0.23038 1.154093,0.30968 2.66644,1.07386 3.771236,1.90558 1.660567,1.25013 2.946868,2.81328 3.84151,4.66832 l 0.449714,0.93248 0.191874,-0.52987 c 0.662921,-1.83072 2.055901,-3.67339 3.683665,-4.87285 2.208323,-1.62727 5.366437,-2.50436 8.508999,-2.36317 2.948394,0.13247 5.382178,1.21634 7.544959,3.36009 1.605012,1.59089 2.5064347,3.26005 3.0553334,5.65754 l 0.1880073,0.82118 0.026994,12.1285 0.026994,12.1285 h -1.187811 -1.1878107 v -11.50854 c 0,-7.72818 -0.02983,-11.72298 -0.0908,-12.16135 -0.582989,-4.19154 -3.954772,-7.65762 -8.028771,-8.25332 -1.076656,-0.15743 -2.901043,-0.0636 -3.920522,0.20172 -1.612543,0.41961 -3.156609,1.31324 -4.518163,2.61489 -1.597928,1.52763 -2.520275,3.12394 -2.909996,5.03633 -0.171099,0.8396 -0.174415,1.07657 -0.174415,12.46307 v 11.6072 h -1.225966 -1.225966 l -0.02287,-11.95917 -0.02287,-11.95916 -0.227008,-0.82176 c -0.822207,-2.97636 -3.228575,-5.65991 -6.015243,-6.7081 -1.155138,-0.4345 -1.683056,-0.51397 -3.367415,-0.50692 -1.404865,0.006 -1.650288,0.0291 -2.380732,0.22514 -1.693558,0.45455 -3.114059,1.3028 -4.485306,2.67841 -1.37253,1.3769 -2.171755,2.6973 -2.676948,4.4226 l -0.232874,0.79529 -0.02472,11.91684 -0.02472,11.91683 h -1.225686 -1.225687 z"
         id="path124" /><path
         style="fill:#546e7a;fill-opacity:1;stroke-width:1.55909"
         d="m 224.90221,215.93025 0.0214,-16.65817 1.1632,-0.0236 1.16319,-0.0236 0.0221,3.36788 0.0221,3.36789 0.22925,-0.43462 c 0.48025,-0.91047 1.46899,-2.27539 2.20898,-3.04944 2.12416,-2.22191 4.68882,-3.45199 8.10035,-3.88517 1.38022,-0.17525 3.93684,-0.1339 5.10105,0.0825 2.77434,0.51569 5.07271,1.66105 7.15216,3.56418 2.70296,2.47378 4.3072,5.67674 4.67838,9.34069 0.0566,0.55847 0.0888,4.53157 0.0888,10.94317 v 10.06636 h -1.18191 -1.18191 l -0.0308,-10.4775 c -0.034,-11.53351 -0.006,-10.9024 -0.56679,-12.72116 -1.02239,-3.31486 -3.86836,-6.53833 -6.96574,-7.88971 -1.66322,-0.72565 -3.82039,-1.07319 -5.69381,-0.91733 -2.33752,0.19448 -4.12808,0.81228 -6.00954,2.07351 -3.13639,2.10247 -5.07962,4.94011 -5.77074,8.42686 -0.12788,0.64517 -0.14609,1.79553 -0.17593,11.1125 l -0.0333,10.39283 h -1.18096 -1.18096 z"
         id="path123" /><path
         style="opacity:1;fill:#546e7a;fill-opacity:1;stroke-width:1.55909"
         d="m 179.83859,232.53348 c -2.04428,-0.19138 -3.38114,-0.54178 -4.86834,-1.27603 -3.43014,-1.69351 -5.75334,-4.62571 -6.55935,-8.2788 -0.32884,-1.49037 -0.34953,-2.8032 -0.3236,-20.53166 l 0.0249,-17.06034 h 1.18534 1.18533 l 0.0217,6.75217 0.0217,6.75217 h 5.07949 5.07949 v 1.016 1.016 h -5.08 -5.08 l 3.5e-4,10.13883 c 3.7e-4,11.24658 -0.0138,10.92565 0.55833,12.6365 0.50042,1.49642 1.22123,2.63981 2.40187,3.81 1.5997,1.58554 3.40904,2.49054 5.67545,2.83876 0.44239,0.068 0.98531,0.1238 1.2065,0.12407 l 0.40217,5e-4 v 1.05834 1.05833 l -0.3175,-0.0135 c -0.17462,-0.007 -0.45085,-0.026 -0.61383,-0.0413 z"
         id="path122" /><path
         style="opacity:1;fill:#546e7a;fill-opacity:1;stroke-width:1.55909"
         d="m 48.054935,232.52999 c -2.87124,-0.37255 -5.277127,-1.50006 -7.258142,-3.40148 -1.946412,-1.86822 -3.074968,-3.97669 -3.563338,-6.65737 l -0.185186,-1.01648 v -22.52134 -22.52133 h 1.185334 1.185333 l 0.04485,22.77533 0.04485,22.77534 0.180181,0.71966 c 0.609427,2.43413 1.868871,4.35973 3.823308,5.84559 0.811536,0.61696 2.427842,1.39332 3.427515,1.64632 0.644202,0.16303 2.189483,0.38145 2.702791,0.38202 0.03493,4e-5 0.0635,0.45727 0.0635,1.01607 v 1.016 l -0.6985,-0.0127 c -0.384175,-0.007 -0.8128,-0.0275 -0.9525,-0.0456 z"
         id="path121" /><path
         style="opacity:1;fill:#546e7a;fill-opacity:1;stroke-width:1.55909"
         d="m 142.03492,232.50838 c -3.15954,-0.33221 -6.05299,-1.52694 -8.59398,-3.54852 -0.94978,-0.75565 -2.60214,-2.46445 -3.35888,-3.47363 -1.94813,-2.59802 -3.04977,-5.33098 -3.42082,-8.48643 -0.14788,-1.25753 -0.0584,-4.01941 0.16928,-5.22568 0.36808,-1.95007 1.24656,-4.13626 2.33849,-5.81961 1.38978,-2.14253 3.76932,-4.4701 5.96923,-5.83887 1.81325,-1.12819 4.02339,-1.93003 6.30402,-2.2871 1.17098,-0.18333 4.11451,-0.20266 5.29166,-0.0347 3.72135,0.53085 6.80822,2.06545 9.63956,4.79221 3.07327,2.95976 4.78756,6.25844 5.296,10.19071 0.73168,5.65879 -1.23001,11.07925 -5.47955,15.14086 -2.8383,2.71278 -6.03775,4.20264 -9.86714,4.59476 -1.00543,0.10295 -3.29112,0.10084 -4.28787,-0.004 z m 5.24676,-2.27267 c 3.34124,-0.6723 6.26874,-2.45015 8.58118,-5.21126 2.50025,-2.98537 3.69589,-6.49943 3.54331,-10.414 -0.0955,-2.45008 -0.58619,-4.37552 -1.63028,-6.39707 -0.82178,-1.59111 -1.81306,-2.87831 -3.36071,-4.36393 -1.22812,-1.17889 -2.27754,-1.92761 -3.65959,-2.61095 -2.07664,-1.02678 -3.61297,-1.40003 -6.03321,-1.46578 -2.37842,-0.0646 -4.39918,0.29734 -6.28579,1.12588 -4.02564,1.76793 -7.4246,5.47151 -8.75845,9.54337 -0.55652,1.69892 -0.68073,2.56767 -0.68073,4.76115 0,1.69352 0.0253,2.0724 0.19384,2.90692 0.60626,3.00128 1.9618,5.5229 4.18919,7.79286 2.40284,2.44878 5.2243,3.91499 8.56982,4.45345 1.17841,0.18967 4.12006,0.1231 5.33142,-0.12064 z"
         id="path120" /><path
         style="opacity:1;fill:#546e7a;fill-opacity:1;stroke-width:1.55909"
         d="m 65.984327,232.46657 c -4.588467,-0.5559 -8.706387,-3.05595 -11.703873,-7.10559 -2.056427,-2.77826 -3.119515,-5.62913 -3.401905,-9.12284 -0.237272,-2.9355 0.371763,-6.12698 1.657346,-8.68484 1.709255,-3.40083 4.740689,-6.41576 8.195924,-8.15129 5.284842,-2.65453 12.284439,-2.27984 17.12578,0.91677 2.163084,1.42822 4.14205,3.40727 5.568633,5.56886 3.055626,4.62996 3.528368,10.95094 1.212609,16.21367 -1.297336,2.94829 -3.755645,5.84915 -6.566611,7.74875 -2.204461,1.48974 -4.706622,2.38457 -7.441434,2.66122 -1.177244,0.11909 -3.477112,0.097 -4.646469,-0.0447 z m 5.607939,-2.23487 c 3.854966,-0.8242 6.961825,-2.91527 9.416614,-6.33783 3.108389,-4.33384 3.584555,-10.60239 1.171617,-15.42389 -1.880275,-3.75715 -5.241239,-6.75981 -8.949787,-7.99568 -1.73384,-0.5778 -2.414747,-0.67602 -4.686443,-0.67602 -2.272449,0 -2.943368,0.0969 -4.699,0.67843 -4.480129,1.48409 -8.512198,5.57732 -9.936059,10.08678 -0.742618,2.35192 -0.889428,5.29315 -0.387214,7.75755 1.190602,5.84239 6.163944,10.76421 12.02591,11.90134 1.265312,0.24545 1.289304,0.24701 3.335029,0.21735 1.507704,-0.0219 2.024014,-0.0615 2.709333,-0.20803 z"
         id="path119" /><path
         style="opacity:1;fill:#546e7a;fill-opacity:1;stroke-width:1.55909"
         d="m 14.611605,232.50848 c -5.1306779,-0.53946 -9.762509,-3.43482 -12.8410733,-8.02696 -1.35053965,-2.01454 -2.2063236,-4.15877 -2.655523,-6.65363 -0.2125747,-1.18064 -0.2574569,-3.75077 -0.087973,-5.03767 0.5208853,-3.95509 2.1848861,-7.17876 5.2233332,-10.11919 1.5807327,-1.52973 2.9063416,-2.45973 4.7732357,-3.34871 2.2391104,-1.06622 4.3598124,-1.56094 7.1119994,-1.65908 4.412519,-0.15735 8.079303,1.04751 11.510594,3.78226 0.78836,0.62833 2.361045,2.16491 2.319046,2.26582 -0.01594,0.0383 -1.743475,1.76339 -3.838975,3.83356 -4.740838,4.68355 -16.121327,15.90912 -17.9759542,17.73125 l -1.3812896,1.35709 0.3229564,0.28418 c 0.5178059,0.45563 2.2384929,1.56704 3.1548044,2.03772 1.10002,0.56504 2.164094,0.97201 3.288076,1.25757 0.85311,0.21674 1.016336,0.23025 2.727742,0.22573 1.942857,-0.005 2.661594,-0.0924 4.226396,-0.5134 3.241203,-0.87197 6.428302,-3.08244 8.642936,-5.99448 l 0.635,-0.83496 0.02287,1.85001 0.02287,1.85001 -0.7002,0.70776 c -2.917225,2.94871 -6.450695,4.64588 -10.436867,5.01296 -1.077063,0.0992 -3.082941,0.0953 -4.063999,-0.008 z m -1.685298,-15.07856 c 13.203972,-13.10161 13.752315,-13.65059 13.723478,-13.7394 -0.0441,-0.13583 -0.956873,-0.85516 -1.793515,-1.41343 -0.886499,-0.59154 -2.502469,-1.39176 -3.468298,-1.71747 -0.946981,-0.31936 -2.229546,-0.61141 -3.203529,-0.72948 -1.204919,-0.14605 -3.771679,-0.0566 -4.781067,0.16654 -3.005112,0.66446 -5.4246635,2.08113 -7.856458,4.60002 -2.2503798,2.33098 -3.5130563,4.72019 -4.0735514,7.70789 -0.2047096,1.0912 -0.2043176,3.92716 6.992e-4,5.05763 0.4952478,2.73083 1.5055165,4.97821 3.2054735,7.1307 0.2471696,0.31297 0.4720651,0.57014 0.4997679,0.5715 0.027703,10e-4 3.5138524,-3.43416 7.7469998,-7.6345 z"
         id="path118" /><path
         style="fill:#e3b091;fill-opacity:1;stroke-width:1.55909"
         d="m 198.9389,232.54891 c -0.69411,-0.11407 -1.41568,-0.5282 -1.98995,-1.1421 -0.50029,-0.53481 -0.54877,-0.56369 -1.42696,-0.84985 -2.45855,-0.80112 -5.07871,-2.46217 -7.11563,-4.51093 -4.20968,-4.23415 -6.22581,-9.85886 -5.56345,-15.52122 0.99443,-8.50109 6.64873,-14.47001 15.11434,-15.95532 2.16385,-0.37965 5.25699,-0.3689 7.06288,0.0245 0.96977,0.21128 2.36841,0.24695 3.12065,0.0796 0.84049,-0.187 1.51868,-0.62177 1.95256,-1.25174 0.23344,-0.33894 0.36656,-0.46017 0.47436,-0.43198 0.12981,0.034 0.14017,0.0911 0.0774,0.42696 -0.20392,1.09156 -0.91448,1.95181 -2.04377,2.47434 -1.26281,0.58431 -1.29854,0.58732 -6.07209,0.51199 -2.2334,-0.0352 -3.2006,0.0399 -4.953,0.38463 -3.371,0.66321 -6.34237,2.06971 -8.65695,4.09779 -4.73111,4.1455 -6.54725,11.4581 -4.29486,17.29308 1.91161,4.9522 6.28239,8.86325 11.6196,10.39742 1.25561,0.36092 1.62137,0.56003 2.09859,1.14241 0.60362,0.73664 1.06601,0.81522 1.80976,0.30754 0.84301,-0.57544 0.98036,-0.62015 2.28513,-0.74386 2.87041,-0.27215 5.59021,-1.05264 8.34689,-2.39526 4.19103,-2.04121 6.94638,-4.98396 8.17099,-8.72672 0.94749,-2.89581 0.94161,-7.42209 -0.0132,-10.14156 -0.95951,-2.73293 -2.61067,-4.56791 -5.2793,-5.86704 -3.7754,-1.83791 -9.08721,-2.40979 -12.89747,-1.38856 -4.12475,1.10552 -7.0298,3.71412 -8.26341,7.42015 -0.45655,1.37159 -0.57375,2.17507 -0.60333,4.1365 -0.0218,1.4427 -0.0471,1.74001 -0.15039,1.76142 -0.14503,0.0301 -0.38434,-0.6306 -0.65338,-1.80375 -0.25851,-1.12724 -0.31955,-3.29163 -0.12562,-4.45412 0.9293,-5.57038 5.6212,-9.54281 12.08576,-10.2325 2.45736,-0.26217 5.35182,0.0982 8.12088,1.01099 6.89241,2.27208 10.10193,7.21425 9.64211,14.84739 -0.19322,3.20739 -0.62352,5.09044 -1.6542,7.23898 -0.8611,1.79503 -1.94454,3.27068 -3.52232,4.7974 -3.33656,3.22859 -8.15936,5.48081 -12.8448,5.99846 -0.94509,0.10441 -1.00826,0.12397 -1.48222,0.45899 -0.75432,0.53319 -1.56306,0.73947 -2.37563,0.60593 z"
         id="path117" /><path
         style="opacity:1;fill:#546e7a;fill-opacity:1;stroke-width:2.78098"
         d="m 106.98834,232.54035 c -4.01303,-0.38825 -7.495946,-2.07961 -10.461742,-5.08038 -3.652242,-3.69531 -5.419116,-8.12127 -5.222007,-13.08096 0.173609,-4.36838 1.723173,-7.96181 4.824389,-11.18773 2.857032,-2.97191 6.09171,-4.68703 10.04961,-5.32856 1.14899,-0.18624 3.75227,-0.25203 4.92525,-0.12447 4.00824,0.43588 7.16782,1.93509 10.29826,4.88647 l 0.70318,0.66296 -0.0258,1.88197 -0.0258,1.88197 -0.50559,-0.68444 c -2.31731,-3.1371 -6.05673,-5.57447 -9.72881,-6.34129 -2.44931,-0.51148 -5.26947,-0.33431 -7.6726,0.48201 -3.17452,1.07836 -6.18839,3.49398 -8.192088,6.56596 -2.736069,4.19481 -3.045944,10.1904 -0.762636,14.75582 1.125766,2.25094 2.737159,4.17777 4.755137,5.68597 1.961317,1.46586 3.988947,2.3554 6.358587,2.78957 1.31665,0.24125 3.99662,0.22264 5.2854,-0.0367 2.27054,-0.45689 4.51337,-1.4727 6.5049,-2.94618 0.87604,-0.64817 2.81986,-2.61264 3.45032,-3.487 l 0.50738,-0.70366 0.0241,1.88899 0.0241,1.889 -0.91308,0.89435 c -2.59869,2.54541 -5.62768,4.0621 -9.21041,4.61191 -1.00808,0.1547 -3.92511,0.22743 -4.98992,0.12441 z"
         id="path116" /></g></g></svg>
