<?xml version="1.0" encoding="UTF-8" standalone="no"?>
<!-- Created with Inkscape (http://www.inkscape.org/) -->

<svg
   width="100mm"
   height="100mm"
   viewBox="0 0 100 100"
   version="1.1"
   id="svg1"
   xml:space="preserve"
   inkscape:version="1.4 (e7c3feb1, 2024-10-09)"
   sodipodi:docname="logo_s_v_g.svg"
   xmlns:inkscape="http://www.inkscape.org/namespaces/inkscape"
   xmlns:sodipodi="http://sodipodi.sourceforge.net/DTD/sodipodi-0.dtd"
   xmlns="http://www.w3.org/2000/svg"
   xmlns:svg="http://www.w3.org/2000/svg"><sodipodi:namedview
     id="namedview1"
     pagecolor="#ffffff"
     bordercolor="#000000"
     borderopacity="0.25"
     inkscape:showpageshadow="2"
     inkscape:pageopacity="0.0"
     inkscape:pagecheckerboard="0"
     inkscape:deskcolor="#d1d1d1"
     inkscape:document-units="mm"
     inkscape:zoom="0.50381563"
     inkscape:cx="384.06907"
     inkscape:cy="464.45562"
     inkscape:window-width="1712"
     inkscape:window-height="967"
     inkscape:window-x="0"
     inkscape:window-y="43"
     inkscape:window-maximized="1"
     inkscape:current-layer="layer1" /><defs
     id="defs1"><pattern
       patternUnits="userSpaceOnUse"
       width="1170.8796"
       height="213.46077"
       patternTransform="translate(-209.42749,70.062864)"
       preserveAspectRatio="xMidYMid"
       id="pattern1"><path
         style="stroke-width:3.77953"
         d="m 612.02042,213.27946 c -15.16736,-1.4674 -28.33116,-7.85995 -39.54047,-19.20144 -13.80375,-13.96652 -20.4817,-30.69456 -19.73672,-49.43985 0.65616,-16.51041 6.51278,-30.09188 18.23391,-42.28433 10.79824,-11.232416 23.02382,-17.71476 37.98281,-20.13944 4.34264,-0.703899 14.18181,-0.952554 18.61512,-0.470438 15.14925,1.647421 27.09097,7.313726 38.92255,18.468548 l 2.65769,2.50568 -0.0975,7.11295 -0.0975,7.11296 -1.91089,-2.58686 c -8.75834,-11.85675 -22.89158,-21.068862 -36.77031,-23.967079 -9.25723,-1.933153 -19.91611,-1.263534 -28.9988,1.82177 -11.99819,4.075691 -23.38922,13.205589 -30.96225,24.816229 -10.34105,15.8544 -11.51223,38.5149 -2.8824,55.77003 4.25486,8.50749 10.34516,15.78999 17.97217,21.49028 7.41288,5.54025 15.07636,8.9023 24.03248,10.54325 4.97631,0.91181 15.10533,0.84148 19.97631,-0.13871 8.58157,-1.72682 17.05841,-5.56611 24.58545,-11.13516 3.31102,-2.44978 10.65774,-9.87455 13.04058,-13.17922 l 1.91766,-2.6595 0.0911,7.13949 0.0911,7.13953 -3.45101,3.38022 c -9.82182,9.62045 -21.26997,15.35282 -34.811,17.43084 -3.81006,0.58469 -14.83506,0.85958 -18.85954,0.47021 z m 347.52968,-0.0227 c -2.62341,-0.43113 -5.35061,-1.99635 -7.52107,-4.3166 -1.89086,-2.02133 -2.0741,-2.13048 -5.39324,-3.21203 -9.29216,-3.02785 -19.19512,-9.30584 -26.89372,-17.04918 -15.9106,-16.00309 -23.53062,-37.26184 -21.02721,-58.66288 3.75847,-32.130106 25.12906,-54.689803 57.12506,-60.303573 8.17833,-1.434898 19.86894,-1.394268 26.69435,0.0926 3.66528,0.798539 8.95147,0.933354 11.79459,0.30085 3.17665,-0.706771 5.73984,-2.349996 7.37974,-4.730985 0.8823,-1.281034 1.3854,-1.739226 1.7929,-1.632681 0.4906,0.128504 0.5297,0.344315 0.2925,1.613707 -0.7707,4.125581 -3.4563,7.37692 -7.72448,9.351837 -4.77283,2.208415 -4.90787,2.219792 -22.94963,1.93508 -8.4412,-0.13304 -12.09676,0.150803 -18.72,1.45372 -12.74079,2.50662 -23.97117,7.822526 -32.71919,15.48771 -17.88136,15.668025 -24.74551,43.306205 -16.23254,65.359675 7.22499,18.71697 23.74447,33.49889 43.9166,39.29733 4.74561,1.36411 6.12801,2.11665 7.93168,4.31777 2.2814,2.78415 4.02901,3.08115 6.84004,1.16236 3.18618,-2.17489 3.7053,-2.34388 8.63671,-2.81144 10.84879,-1.0286 21.12835,-3.97848 31.54731,-9.05295 15.8401,-7.71481 26.254,-18.83702 30.8825,-32.98288 3.581,-10.9448 3.5588,-28.052 -0.05,-38.33031 -3.6265,-10.32918 -9.8671,-17.26454 -19.9533,-22.174636 -14.2692,-6.946431 -34.34534,-9.107867 -48.74632,-5.2481 -15.58961,4.178343 -26.56932,14.037616 -31.23179,28.044656 -1.72554,5.18397 -2.1685,8.22074 -2.2803,15.63402 -0.0824,5.45272 -0.17801,6.57641 -0.5684,6.65733 -0.54815,0.11377 -1.45263,-2.38337 -2.46947,-6.81732 -0.97705,-4.26043 -1.20775,-12.4408 -0.47478,-16.83447 3.51231,-21.053401 21.24548,-36.067309 45.67846,-38.674012 9.28766,-0.990878 20.22735,0.37115 30.6931,3.821065 26.05,8.587389 38.1805,27.266457 36.4426,56.116117 -0.7303,12.12242 -2.3566,19.23946 -6.2521,27.35993 -3.2545,6.78436 -7.3494,12.36162 -13.3127,18.1319 -12.6106,12.20255 -30.83852,20.71487 -48.54727,22.67135 -3.57199,0.39462 -3.81074,0.46854 -5.60209,1.73476 -2.85097,2.01521 -5.90763,2.79485 -8.97876,2.29013 z m -696.67012,-0.33109 c -19.39154,-2.0389 -36.89767,-12.98199 -48.53319,-30.33811 -5.1044,-7.61401 -8.33886,-15.71819 -10.03662,-25.14758 -0.80343,-4.46226 -0.97307,-14.17614 -0.3325,-19.04001 1.9687,-14.94837 8.25784,-27.13232 19.74173,-38.24576 5.97443,-5.781657 10.9846,-9.296617 18.04058,-12.656542 8.46278,-4.029808 16.47803,-5.899616 26.88,-6.270538 16.67724,-0.594709 30.53595,3.959093 43.50461,14.295156 2.97962,2.37479 8.92363,8.182334 8.76489,8.563724 -0.0602,0.14476 -6.58951,6.66479 -14.50951,14.48905 -17.91813,17.70161 -60.931,60.12896 -67.94061,67.01575 l -5.22063,5.12916 1.22063,1.07406 c 1.95706,1.72207 8.46044,5.92267 11.92367,7.70162 4.15755,2.13559 8.17925,3.67374 12.42737,4.75302 3.22436,0.81918 3.84127,0.87024 10.30958,0.85316 7.34308,-0.0189 10.05957,-0.34923 15.97378,-1.94041 12.25021,-3.29564 24.29594,-11.65017 32.66621,-22.65631 l 2.4,-3.15575 0.0864,6.99216 0.0864,6.99217 -2.64643,2.675 c -11.02573,11.14473 -24.38058,17.55923 -39.44642,18.94662 -4.07079,0.37493 -11.65206,0.36018 -15.36,-0.0302 z m -6.36963,-56.98983 c 49.90477,-49.51789 51.97725,-51.59278 51.86826,-51.92844 -0.16668,-0.51337 -3.61653,-3.2321 -6.77864,-5.342097 -3.35055,-2.235742 -9.45815,-5.260195 -13.10853,-6.491225 -3.57914,-1.20703 -8.42663,-2.310841 -12.10782,-2.75709 -4.55403,-0.552 -14.25517,-0.213921 -18.07018,0.629442 -11.3579,2.511345 -20.50266,7.865689 -29.69369,17.3859 -8.50538,8.81001 -13.2777,17.84009 -15.3961,29.13219 -0.77371,4.12422 -0.77223,14.8428 0.003,19.11545 1.8718,10.32124 5.69014,18.81528 12.11518,26.95067 0.93418,1.18288 1.78418,2.15486 1.88888,2.16 0.10471,0.004 13.2807,-12.9795 29.28,-28.8548 z m 200.53425,56.51993 c -17.34224,-2.10104 -32.90603,-11.55005 -44.23511,-26.85578 -7.77233,-10.50051 -11.7903,-21.27545 -12.8576,-34.48002 -0.89677,-11.09481 1.40509,-23.15709 6.26399,-32.82459 6.46017,-12.85354 17.91756,-24.248546 30.97672,-30.80803 19.9742,-10.032869 46.42937,-8.616718 64.72736,3.464958 8.17543,5.397996 15.65499,12.877872 21.0468,21.047662 11.54882,17.49906 13.33556,41.38938 4.58309,61.28001 -4.90332,11.14314 -14.19457,22.10702 -24.81869,29.28661 -8.33182,5.63052 -17.78881,9.01255 -28.12511,10.05816 -4.44942,0.4501 -13.14184,0.36661 -17.56145,-0.16895 z m 21.19536,-8.44676 c 14.56995,-3.11508 26.31241,-11.01834 35.59035,-23.954 11.74824,-16.37987 13.54792,-40.07203 4.42816,-58.29502 -7.10655,-14.20025 -19.80941,-25.548886 -33.82597,-30.21989 -6.55309,-2.183811 -9.1266,-2.555037 -17.71254,-2.555037 -8.58878,0 -11.12454,0.366237 -17.76,2.564145 -16.93277,5.609159 -32.17209,21.079632 -37.55361,38.123262 -2.80674,8.88915 -3.36162,20.00561 -1.46348,29.31988 4.49991,22.08147 23.29679,40.68362 45.45225,44.98144 4.78229,0.92768 4.87296,0.93358 12.60484,0.82148 5.69841,-0.0828 7.64982,-0.23244 10.24,-0.78626 z m 266.23998,8.59669 c -11.94157,-1.2556 -22.87745,-5.77111 -32.48119,-13.41173 -3.58972,-2.856 -9.83486,-9.31446 -12.69498,-13.12868 -7.36301,-9.81929 -11.52669,-20.14859 -12.92908,-32.0747 -0.55892,-4.75287 -0.22073,-15.19147 0.6398,-19.7506 1.39117,-7.37034 4.7114,-15.63311 8.83838,-21.99537 5.25272,-8.09775 14.24625,-16.89487 22.56087,-22.068174 6.85323,-4.264025 15.20652,-7.294601 23.82622,-8.644157 4.42575,-0.692901 15.5509,-0.765959 19.99998,-0.13115 14.06494,2.006362 25.73185,7.806425 36.43298,18.11229 11.61551,11.186491 18.09471,23.653951 20.01638,38.516071 2.7654,21.38755 -4.64886,41.87433 -20.71011,57.2253 -10.72744,10.25302 -22.81985,15.88399 -37.29313,17.36602 -3.80005,0.3891 -12.43888,0.38113 -16.20612,-0.0151 z m 19.83027,-8.58962 c 12.62831,-2.54098 23.69288,-9.26041 32.43281,-19.6961 9.44976,-11.28329 13.96871,-24.56477 13.39203,-39.36 -0.36094,-9.26014 -2.21552,-16.5374 -6.16168,-24.1779 -3.10594,-6.01365 -6.85251,-10.87865 -12.7019,-16.4936 -4.64171,-4.455643 -8.60803,-7.285451 -13.83152,-9.868154 -7.84872,-3.880743 -13.65532,-5.291452 -22.80269,-5.539955 -8.9893,-0.244158 -16.62682,1.123804 -23.75731,4.255294 -15.21502,6.68194 -28.06148,20.679725 -33.1028,36.069425 -2.10339,6.42112 -2.57284,9.70458 -2.57284,17.9949 0,6.40071 0.0956,7.8327 0.73262,10.98679 2.29138,11.34342 7.41468,20.87395 15.83316,29.45333 9.0816,9.25523 19.74539,14.79681 32.38987,16.83193 4.45383,0.71687 15.57188,0.46526 20.15025,-0.45596 z m -375.03024,8.08343 c -10.85193,-1.40807 -19.94505,-5.66952 -27.43235,-12.85599 -7.35652,-7.06099 -11.62193,-15.03001 -13.46774,-25.16171 l -0.69991,-3.84182 V 85.119987 0 h 4.48 4.48 l 0.16951,86.079987 0.16951,86.080023 0.681,2.71998 c 2.30335,9.19986 7.06345,16.47772 14.4503,22.09357 3.06722,2.33181 9.1761,5.26609 12.95439,6.22231 2.43478,0.61617 8.27521,1.4417 10.21527,1.44385 0.13202,1.5e-4 0.24,1.72827 0.24,3.84027 v 3.84 l -2.64,-0.048 c -1.452,-0.0265 -3.072,-0.10394 -3.6,-0.17235 z m 498.07998,-0.6268 c -7.72641,-0.72333 -12.77911,-2.04767 -18.40003,-4.82279 -12.96431,-6.40067 -21.7449,-17.483 -24.79124,-31.28995 -1.24286,-5.6329 -1.32106,-10.59477 -1.22306,-77.599977 l 0.0941,-64.480026 h 4.48003 4.47999 l 0.082,25.520013 0.082,25.520013 h 19.19807 19.19807 v 3.84 3.84 h -19.2 -19.2 l 10e-4,38.319987 c 10e-4,42.50676 -0.0522,41.2938 2.11022,47.76 1.89135,5.65576 4.61567,9.97723 9.07793,14.4 6.04611,5.99259 12.88456,9.41306 21.45052,10.72917 1.67203,0.25701 3.72401,0.46791 4.56,0.46893 l 1.52002,0.002 v 4.00002 3.99999 l -1.2,-0.051 c -0.65999,-0.0265 -1.704,-0.0983 -2.31999,-0.1561 z m 170.31915,-64.03272 0.081,-62.96001 4.3964,-0.0892 4.3963,-0.0892 0.083,12.728996 0.084,12.729024 0.8665,-1.64265 c 1.8151,-3.44115 5.5521,-8.599899 8.3489,-11.525442 8.0283,-8.39777 17.7215,-13.046891 30.6155,-14.684107 5.2166,-0.662362 14.8794,-0.506079 19.2795,0.311811 10.4857,1.949064 19.1725,6.277984 27.0318,13.470916 10.2159,9.349712 16.2792,21.455392 17.6821,35.303392 0.2139,2.11075 0.3356,17.12719 0.3356,41.36001 v 38.04609 h -4.467 -4.4671 l -0.1164,-39.6 c -0.1285,-43.59122 -0.023,-41.20592 -2.1422,-48.07998 -3.8642,-12.5286 -14.6206,-24.711792 -26.3272,-29.81937 -6.2862,-2.742614 -14.4393,-4.056151 -21.5199,-3.467074 -8.8347,0.735043 -15.6022,3.070035 -22.7133,7.836888 -11.854,7.946336 -19.1985,18.671276 -21.8106,31.849546 -0.4833,2.43844 -0.5522,6.78625 -0.665,42 l -0.1258,39.27999 h -4.4635 -4.4635 z M 0,146.88 V 84 h 4.6400013 4.6399974 l 0.015118,8.559987 0.015118,8.560023 0.8386323,-1.120023 c 0.46125,-0.615987 2.436824,-2.703987 4.390167,-4.639974 6.89122,-6.83006 15.693335,-11.594344 25.240853,-13.66201 2.663225,-0.576756 4.25653,-0.703861 8.700291,-0.693959 4.870631,0.01134 5.774921,0.102047 8.64,0.870728 4.361926,1.170444 10.077883,4.058683 14.25349,7.202192 6.276159,4.724901 11.137769,10.632869 14.519093,17.644046 l 1.699706,3.52433 0.725193,-2.00266 c 2.505529,-6.91925 7.770335,-13.883675 13.92251,-18.417067 8.34642,-6.150312 20.2826,-9.465298 32.16,-8.931667 11.14354,0.500674 20.34209,4.597191 28.51638,12.699553 6.06619,6.012813 9.47314,12.321451 11.54772,21.382831 l 0.71058,3.10367 0.10202,45.84 0.10203,45.84 h -4.48937 -4.48936 v -43.49684 c 0,-29.20887 -0.11275,-44.30733 -0.34318,-45.96416 -2.20343,-15.84204 -14.94717,-28.942187 -30.34496,-31.193652 -4.06926,-0.595011 -10.96458,-0.240378 -14.81773,0.762406 -6.09465,1.585928 -11.93049,4.963427 -17.07652,9.883049 -6.03941,5.773717 -9.525446,11.807017 -10.998407,19.034947 -0.646674,3.17329 -0.659207,4.06893 -0.659207,47.10452 V 209.76 h -4.633572 -4.633572 l -0.08644,-45.20001 -0.08644,-45.19998 -0.857983,-3.10586 C 78.754609,105.00491 69.659675,94.862362 59.127386,90.900699 54.761511,89.258494 52.76623,88.958135 46.400149,88.984781 c -5.309726,0.02268 -6.237309,0.109984 -8.998043,0.850923 -6.400849,1.717984 -11.769671,4.923968 -16.952337,10.123124 -5.187515,5.204032 -8.208208,10.194522 -10.117599,16.715342 l -0.8801536,3.00582 -0.09343,45.04002 -0.09343,45.03999 H 4.6326425 1.2472441e-4 Z"
         id="path1" /></pattern><pattern
       patternUnits="userSpaceOnUse"
       width="1170.8796"
       height="213.46077"
       patternTransform="translate(-211.19996,121.46453)"
       preserveAspectRatio="xMidYMid"
       id="pattern2"><path
         style="stroke-width:3.77953"
         d="m 612.02041,213.27946 c -15.16736,-1.4674 -28.33115,-7.85995 -39.54046,-19.20144 -13.80375,-13.96652 -20.4817,-30.69456 -19.73672,-49.43985 0.65616,-16.51041 6.51278,-30.09188 18.23391,-42.28433 10.79824,-11.232416 23.0238,-17.71476 37.98279,-20.13944 4.34264,-0.703899 14.18181,-0.952554 18.61512,-0.470438 15.14925,1.647421 27.09097,7.313726 38.92256,18.468548 l 2.65769,2.50568 -0.0975,7.11295 -0.0975,7.11296 -1.91089,-2.58686 c -8.75833,-11.85675 -22.89158,-21.068862 -36.7703,-23.967079 -9.25724,-1.933153 -19.91611,-1.263534 -28.99881,1.82177 -11.99818,4.075691 -23.3892,13.205589 -30.96223,24.816229 -10.34105,15.8544 -11.51223,38.5149 -2.8824,55.77003 4.25486,8.50749 10.34516,15.78999 17.97217,21.49028 7.41286,5.54025 15.07634,8.9023 24.03246,10.54325 4.97632,0.91181 15.10534,0.84148 19.97632,-0.13871 8.58157,-1.72682 17.0584,-5.56611 24.58545,-11.13516 3.31101,-2.44978 10.65774,-9.87455 13.04058,-13.17922 l 1.91765,-2.6595 0.0911,7.13949 0.0911,7.13953 -3.45101,3.38022 c -9.82182,9.62045 -21.26998,15.35282 -34.811,17.43084 -3.81007,0.58469 -14.83506,0.85958 -18.85954,0.47021 z m 347.52967,-0.0227 c -2.62341,-0.43113 -5.3506,-1.99635 -7.52107,-4.3166 -1.89086,-2.02133 -2.07409,-2.13048 -5.39323,-3.21203 -9.29216,-3.02785 -19.19513,-9.30584 -26.89372,-17.04918 -15.91061,-16.00309 -23.53062,-37.26184 -21.02722,-58.66288 3.75848,-32.130106 25.12906,-54.689803 57.12507,-60.303573 8.17833,-1.434898 19.86894,-1.394268 26.69435,0.0926 3.66527,0.798539 8.95147,0.933354 11.79458,0.30085 3.17666,-0.706771 5.73986,-2.349996 7.37976,-4.730985 0.8823,-1.281034 1.3854,-1.739226 1.7929,-1.632681 0.4906,0.128504 0.5297,0.344315 0.2925,1.613707 -0.7707,4.125581 -3.4563,7.37692 -7.7245,9.351837 -4.77282,2.208415 -4.90787,2.219792 -22.94963,1.93508 -8.4412,-0.13304 -12.09676,0.150803 -18.72,1.45372 -12.74079,2.50662 -23.97116,7.822526 -32.71918,15.48771 -17.88136,15.668025 -24.74551,43.306205 -16.23254,65.359675 7.22498,18.71697 23.74446,33.49889 43.9166,39.29733 4.74561,1.36411 6.12801,2.11665 7.93167,4.31777 2.2814,2.78415 4.02902,3.08115 6.84004,1.16236 3.18618,-2.17489 3.7053,-2.34388 8.63671,-2.81144 10.8488,-1.0286 21.12836,-3.97848 31.54733,-9.05295 15.8401,-7.71481 26.254,-18.83702 30.8825,-32.98288 3.581,-10.9448 3.5588,-28.052 -0.05,-38.33031 -3.6265,-10.32918 -9.8671,-17.26454 -19.9533,-22.174636 -14.2692,-6.946431 -34.34535,-9.107867 -48.74634,-5.2481 -15.5896,4.178343 -26.56932,14.037616 -31.23178,28.044656 -1.72555,5.18397 -2.16851,8.22074 -2.2803,15.63402 -0.0824,5.45272 -0.17802,6.57641 -0.56841,6.65733 -0.54814,0.11377 -1.45262,-2.38337 -2.46947,-6.81732 -0.97704,-4.26043 -1.20774,-12.4408 -0.47478,-16.83447 3.51232,-21.053401 21.24548,-36.067309 45.67846,-38.674012 9.28766,-0.990878 20.22735,0.37115 30.69312,3.821065 26.05,8.587389 38.1805,27.266457 36.4426,56.116117 -0.7303,12.12242 -2.3566,19.23946 -6.2521,27.35993 -3.2546,6.78436 -7.3494,12.36162 -13.3127,18.1319 -12.6106,12.20255 -30.83853,20.71487 -48.54728,22.67135 -3.572,0.39462 -3.81075,0.46854 -5.60209,1.73476 -2.85098,2.01521 -5.90763,2.79485 -8.97876,2.29013 z m -696.6701,-0.33109 c -19.39154,-2.0389 -36.89767,-12.98199 -48.53319,-30.33811 -5.1044,-7.61401 -8.33886,-15.71819 -10.03662,-25.14758 -0.80344,-4.46226 -0.97307,-14.17614 -0.3325,-19.04001 1.9687,-14.94837 8.25784,-27.13232 19.74173,-38.24576 5.97443,-5.781657 10.9846,-9.296617 18.04058,-12.656542 8.46278,-4.029808 16.47803,-5.899616 26.88,-6.270538 16.67724,-0.594709 30.53595,3.959093 43.50461,14.295156 2.97962,2.37479 8.92363,8.182334 8.76489,8.563724 -0.0602,0.14476 -6.58951,6.66479 -14.50951,14.48905 -17.91813,17.70161 -60.931,60.12896 -67.94061,67.01575 l -5.22063,5.12916 1.22063,1.07406 c 1.95706,1.72207 8.46044,5.92267 11.92367,7.70162 4.15755,2.13559 8.17925,3.67374 12.42737,4.75302 3.22436,0.81918 3.84127,0.87024 10.30958,0.85316 7.34308,-0.0189 10.05957,-0.34923 15.97378,-1.94041 12.25021,-3.29564 24.29594,-11.65017 32.66621,-22.65631 l 2.4,-3.15575 0.0864,6.99216 0.0864,6.99217 -2.64643,2.675 c -11.02573,11.14473 -24.38058,17.55923 -39.44642,18.94662 -4.07079,0.37493 -11.65206,0.36018 -15.36,-0.0302 z m -6.36963,-56.98983 c 49.90477,-49.51789 51.97725,-51.59278 51.86826,-51.92844 -0.16668,-0.51337 -3.61653,-3.2321 -6.77864,-5.342097 -3.35055,-2.235742 -9.45815,-5.260195 -13.10853,-6.491225 -3.57914,-1.20703 -8.42663,-2.310841 -12.10782,-2.75709 -4.55403,-0.552 -14.25517,-0.213921 -18.07018,0.629442 -11.3579,2.511345 -20.50266,7.865689 -29.69369,17.3859 -8.50538,8.81001 -13.2777,17.84009 -15.3961,29.13219 -0.77371,4.12422 -0.77223,14.8428 0.003,19.11545 1.8718,10.32124 5.69014,18.81528 12.11517,26.95067 0.93419,1.18288 1.78419,2.15486 1.88889,2.16 0.1047,0.004 13.2807,-12.9795 29.28,-28.8548 z m 200.53425,56.51993 c -17.34224,-2.10104 -32.90603,-11.55005 -44.23511,-26.85578 -7.77233,-10.50051 -11.7903,-21.27545 -12.8576,-34.48002 -0.89677,-11.09481 1.40509,-23.15709 6.26399,-32.82459 6.46017,-12.85354 17.91756,-24.248546 30.97672,-30.80803 19.9742,-10.032869 46.42937,-8.616718 64.72736,3.464958 8.17543,5.397996 15.65499,12.877872 21.0468,21.047662 11.54882,17.49906 13.33556,41.38938 4.58309,61.28001 -4.90332,11.14314 -14.19457,22.10702 -24.81869,29.28661 -8.33182,5.63052 -17.78881,9.01255 -28.12511,10.05816 -4.44942,0.4501 -13.14184,0.36661 -17.56145,-0.16895 z m 21.19536,-8.44676 c 14.56995,-3.11508 26.31241,-11.01834 35.59035,-23.954 11.74824,-16.37987 13.54792,-40.07203 4.42816,-58.29502 -7.10655,-14.20025 -19.80941,-25.548886 -33.82597,-30.21989 -6.55309,-2.183811 -9.1266,-2.555037 -17.71254,-2.555037 -8.58878,0 -11.12454,0.366237 -17.76,2.564145 -16.93277,5.609159 -32.17209,21.079632 -37.55361,38.123262 -2.80674,8.88915 -3.36162,20.00561 -1.46348,29.31988 4.49991,22.08147 23.29679,40.68362 45.45225,44.98144 4.78229,0.92768 4.87296,0.93358 12.60484,0.82148 5.69841,-0.0828 7.64982,-0.23244 10.24,-0.78626 z m 266.23996,8.59669 c -11.94157,-1.2556 -22.87744,-5.77111 -32.48118,-13.41173 -3.58972,-2.856 -9.83486,-9.31446 -12.69498,-13.12868 -7.36301,-9.81929 -11.52669,-20.14859 -12.92909,-32.0747 -0.55891,-4.75287 -0.22072,-15.19147 0.6398,-19.7506 1.39117,-7.37034 4.71141,-15.63311 8.83839,-21.99537 5.25271,-8.09775 14.24625,-16.89487 22.56087,-22.068174 6.85323,-4.264025 15.20651,-7.294601 23.82622,-8.644157 4.42575,-0.692901 15.5509,-0.765959 19.99997,-0.13115 14.06495,2.006362 25.73186,7.806425 36.43298,18.11229 11.61551,11.186491 18.09472,23.653951 20.01638,38.516071 2.76541,21.38755 -4.64886,41.87433 -20.71011,57.2253 -10.72743,10.25302 -22.81984,15.88399 -37.29313,17.36602 -3.80005,0.3891 -12.43888,0.38113 -16.20612,-0.0151 z m 19.83027,-8.58962 c 12.62831,-2.54098 23.69288,-9.26041 32.43281,-19.6961 9.44976,-11.28329 13.96872,-24.56477 13.39204,-39.36 -0.36095,-9.26014 -2.21552,-16.5374 -6.16169,-24.1779 -3.10594,-6.01365 -6.85251,-10.87865 -12.7019,-16.4936 -4.64171,-4.455643 -8.60802,-7.285451 -13.83152,-9.868154 -7.84871,-3.880743 -13.65532,-5.291452 -22.80268,-5.539955 -8.9893,-0.244158 -16.62682,1.123804 -23.75732,4.255294 -15.21501,6.68194 -28.06148,20.679725 -33.1028,36.069425 -2.10338,6.42112 -2.57284,9.70458 -2.57284,17.9949 0,6.40071 0.0956,7.8327 0.73263,10.98679 2.29137,11.34342 7.41467,20.87395 15.83315,29.45333 9.0816,9.25523 19.74539,14.79681 32.38988,16.83193 4.45383,0.71687 15.57188,0.46526 20.15024,-0.45596 z m -375.03022,8.08343 c -10.85193,-1.40807 -19.94505,-5.66952 -27.43235,-12.85599 -7.35652,-7.06099 -11.62193,-15.03001 -13.46774,-25.16171 l -0.69991,-3.84182 V 85.119987 0 h 4.48 4.48 l 0.16951,86.079987 0.16951,86.080023 0.681,2.71998 c 2.30335,9.19986 7.06345,16.47772 14.4503,22.09357 3.06722,2.33181 9.1761,5.26609 12.95439,6.22231 2.43478,0.61617 8.27521,1.4417 10.21527,1.44385 0.13202,1.5e-4 0.24,1.72827 0.24,3.84027 v 3.84 l -2.64,-0.048 c -1.452,-0.0265 -3.072,-0.10394 -3.6,-0.17235 z m 498.07996,-0.6268 c -7.72641,-0.72333 -12.77911,-2.04767 -18.40002,-4.82279 -12.96431,-6.40067 -21.74491,-17.483 -24.79125,-31.28995 -1.24286,-5.6329 -1.32105,-10.59477 -1.22305,-77.599977 l 0.0941,-64.480026 h 4.48002 4.47999 l 0.082,25.520013 0.082,25.520013 h 19.19808 19.19807 v 3.84 3.84 h -19.2 -19.2 l 0.001,38.319987 c 10e-4,42.50676 -0.0522,41.2938 2.11022,47.76 1.89136,5.65576 4.61568,9.97723 9.07794,14.4 6.04611,5.99259 12.88456,9.41306 21.45052,10.72917 1.67202,0.25701 3.724,0.46791 4.56,0.46893 l 1.52001,0.002 v 4.00002 3.99999 l -1.2,-0.051 c -0.65998,-0.0265 -1.704,-0.0983 -2.31999,-0.1561 z m 170.31917,-64.03272 0.081,-62.96001 4.3964,-0.0892 4.3963,-0.0892 0.083,12.728996 0.084,12.729024 0.8665,-1.64265 c 1.8151,-3.44115 5.5521,-8.599899 8.3489,-11.525442 8.0283,-8.39777 17.7215,-13.046891 30.6155,-14.684107 5.2166,-0.662362 14.8794,-0.506079 19.2795,0.311811 10.4857,1.949064 19.1725,6.277984 27.0318,13.470916 10.2159,9.349712 16.2792,21.455392 17.6821,35.303392 0.2139,2.11075 0.3356,17.12719 0.3356,41.36001 v 38.04609 h -4.4671 -4.467 l -0.1164,-39.6 c -0.1285,-43.59122 -0.023,-41.20592 -2.1422,-48.07998 -3.8642,-12.5286 -14.6206,-24.711792 -26.3272,-29.81937 -6.2862,-2.742614 -14.4393,-4.056151 -21.5199,-3.467074 -8.8348,0.735043 -15.6022,3.070035 -22.7133,7.836888 -11.854,7.946336 -19.1985,18.671276 -21.8106,31.849546 -0.4834,2.43844 -0.5522,6.78625 -0.665,42 l -0.1258,39.27999 h -4.4635 -4.4635 z M 0,146.88 V 84 h 4.6400013 4.6399974 l 0.015118,8.559987 0.015118,8.560023 0.8386323,-1.120023 c 0.46125,-0.615987 2.436824,-2.703987 4.390167,-4.639974 6.89122,-6.83006 15.693335,-11.594344 25.240853,-13.66201 2.663225,-0.576756 4.25653,-0.703861 8.700291,-0.693959 4.870631,0.01134 5.774921,0.102047 8.64,0.870728 4.361926,1.170444 10.077883,4.058683 14.25349,7.202192 6.276159,4.724901 11.137769,10.632869 14.519093,17.644046 l 1.699706,3.52433 0.725193,-2.00266 c 2.505529,-6.91925 7.770335,-13.883675 13.92251,-18.417067 8.34642,-6.150312 20.2826,-9.465298 32.16,-8.931667 11.14354,0.500674 20.34209,4.597191 28.51638,12.699553 6.06619,6.012813 9.47314,12.321451 11.54772,21.382831 l 0.71058,3.10367 0.10202,45.84 0.10203,45.84 h -4.48937 -4.48936 v -43.49684 c 0,-29.20887 -0.11275,-44.30733 -0.34318,-45.96416 -2.20343,-15.84204 -14.94717,-28.942187 -30.34496,-31.193652 -4.06926,-0.595011 -10.96458,-0.240378 -14.81773,0.762406 -6.09465,1.585928 -11.93049,4.963427 -17.07652,9.883049 -6.03941,5.773717 -9.525446,11.807017 -10.998407,19.034947 -0.646674,3.17329 -0.659207,4.06893 -0.659207,47.10452 V 209.76 h -4.633572 -4.633572 l -0.08644,-45.20001 -0.08644,-45.19998 -0.857983,-3.10586 C 78.754609,105.00491 69.659675,94.862362 59.127386,90.900699 54.761511,89.258494 52.76623,88.958135 46.400149,88.984781 c -5.309726,0.02268 -6.237309,0.109984 -8.998043,0.850923 -6.400849,1.717984 -11.769671,4.923968 -16.952337,10.123124 -5.187515,5.204032 -8.208208,10.194522 -10.117599,16.715342 l -0.8801536,3.00582 -0.09343,45.04002 -0.09343,45.03999 H 4.6326425 1.2472441e-4 Z"
         id="path2" /></pattern><pattern
       patternUnits="userSpaceOnUse"
       width="1170.8796"
       height="213.46077"
       patternTransform="translate(-211.19996,98.422405)"
       preserveAspectRatio="xMidYMid"
       id="pattern14"><path
         style="stroke-width:3.77953"
         d="m 612.02041,213.27946 c -15.16736,-1.4674 -28.33115,-7.85995 -39.54046,-19.20144 -13.80375,-13.96652 -20.4817,-30.69456 -19.73672,-49.43985 0.65616,-16.51041 6.51278,-30.09188 18.23391,-42.28433 10.79824,-11.232416 23.0238,-17.71476 37.98279,-20.13944 4.34264,-0.703899 14.18181,-0.952554 18.61512,-0.470438 15.14925,1.647421 27.09097,7.313726 38.92256,18.468548 l 2.65769,2.50568 -0.0975,7.11295 -0.0975,7.11296 -1.91089,-2.58686 c -8.75833,-11.85675 -22.89158,-21.068862 -36.7703,-23.967079 -9.25724,-1.933153 -19.91611,-1.263534 -28.99881,1.82177 -11.99818,4.075691 -23.3892,13.205589 -30.96223,24.816229 -10.34105,15.8544 -11.51223,38.5149 -2.8824,55.77003 4.25486,8.50749 10.34516,15.78999 17.97217,21.49028 7.41286,5.54025 15.07634,8.9023 24.03246,10.54325 4.97632,0.91181 15.10534,0.84148 19.97632,-0.13871 8.58157,-1.72682 17.0584,-5.56611 24.58545,-11.13516 3.31101,-2.44978 10.65774,-9.87455 13.04058,-13.17922 l 1.91765,-2.6595 0.0911,7.13949 0.0911,7.13953 -3.45101,3.38022 c -9.82182,9.62045 -21.26998,15.35282 -34.811,17.43084 -3.81007,0.58469 -14.83506,0.85958 -18.85954,0.47021 z m 347.52967,-0.0227 c -2.62341,-0.43113 -5.3506,-1.99635 -7.52107,-4.3166 -1.89086,-2.02133 -2.07409,-2.13048 -5.39323,-3.21203 -9.29216,-3.02785 -19.19513,-9.30584 -26.89372,-17.04918 -15.91061,-16.00309 -23.53062,-37.26184 -21.02722,-58.66288 3.75848,-32.130106 25.12906,-54.689803 57.12507,-60.303573 8.17833,-1.434898 19.86894,-1.394268 26.69435,0.0926 3.66527,0.798539 8.95147,0.933354 11.79458,0.30085 3.17666,-0.706771 5.73986,-2.349996 7.37976,-4.730985 0.8823,-1.281034 1.3854,-1.739226 1.7929,-1.632681 0.4906,0.128504 0.5297,0.344315 0.2925,1.613707 -0.7707,4.125581 -3.4563,7.37692 -7.7245,9.351837 -4.77282,2.208415 -4.90787,2.219792 -22.94963,1.93508 -8.4412,-0.13304 -12.09676,0.150803 -18.72,1.45372 -12.74079,2.50662 -23.97116,7.822526 -32.71918,15.48771 -17.88136,15.668025 -24.74551,43.306205 -16.23254,65.359675 7.22498,18.71697 23.74446,33.49889 43.9166,39.29733 4.74561,1.36411 6.12801,2.11665 7.93167,4.31777 2.2814,2.78415 4.02902,3.08115 6.84004,1.16236 3.18618,-2.17489 3.7053,-2.34388 8.63671,-2.81144 10.8488,-1.0286 21.12836,-3.97848 31.54733,-9.05295 15.8401,-7.71481 26.254,-18.83702 30.8825,-32.98288 3.581,-10.9448 3.5588,-28.052 -0.05,-38.33031 -3.6265,-10.32918 -9.8671,-17.26454 -19.9533,-22.174636 -14.2692,-6.946431 -34.34535,-9.107867 -48.74634,-5.2481 -15.5896,4.178343 -26.56932,14.037616 -31.23178,28.044656 -1.72555,5.18397 -2.16851,8.22074 -2.2803,15.63402 -0.0824,5.45272 -0.17802,6.57641 -0.56841,6.65733 -0.54814,0.11377 -1.45262,-2.38337 -2.46947,-6.81732 -0.97704,-4.26043 -1.20774,-12.4408 -0.47478,-16.83447 3.51232,-21.053401 21.24548,-36.067309 45.67846,-38.674012 9.28766,-0.990878 20.22735,0.37115 30.69312,3.821065 26.05,8.587389 38.1805,27.266457 36.4426,56.116117 -0.7303,12.12242 -2.3566,19.23946 -6.2521,27.35993 -3.2546,6.78436 -7.3494,12.36162 -13.3127,18.1319 -12.6106,12.20255 -30.83853,20.71487 -48.54728,22.67135 -3.572,0.39462 -3.81075,0.46854 -5.60209,1.73476 -2.85098,2.01521 -5.90763,2.79485 -8.97876,2.29013 z m -696.6701,-0.33109 c -19.39154,-2.0389 -36.89767,-12.98199 -48.53319,-30.33811 -5.1044,-7.61401 -8.33886,-15.71819 -10.03662,-25.14758 -0.80344,-4.46226 -0.97307,-14.17614 -0.3325,-19.04001 1.9687,-14.94837 8.25784,-27.13232 19.74173,-38.24576 5.97443,-5.781657 10.9846,-9.296617 18.04058,-12.656542 8.46278,-4.029808 16.47803,-5.899616 26.88,-6.270538 16.67724,-0.594709 30.53595,3.959093 43.50461,14.295156 2.97962,2.37479 8.92363,8.182334 8.76489,8.563724 -0.0602,0.14476 -6.58951,6.66479 -14.50951,14.48905 -17.91813,17.70161 -60.931,60.12896 -67.94061,67.01575 l -5.22063,5.12916 1.22063,1.07406 c 1.95706,1.72207 8.46044,5.92267 11.92367,7.70162 4.15755,2.13559 8.17925,3.67374 12.42737,4.75302 3.22436,0.81918 3.84127,0.87024 10.30958,0.85316 7.34308,-0.0189 10.05957,-0.34923 15.97378,-1.94041 12.25021,-3.29564 24.29594,-11.65017 32.66621,-22.65631 l 2.4,-3.15575 0.0864,6.99216 0.0864,6.99217 -2.64643,2.675 c -11.02573,11.14473 -24.38058,17.55923 -39.44642,18.94662 -4.07079,0.37493 -11.65206,0.36018 -15.36,-0.0302 z m -6.36963,-56.98983 c 49.90477,-49.51789 51.97725,-51.59278 51.86826,-51.92844 -0.16668,-0.51337 -3.61653,-3.2321 -6.77864,-5.342097 -3.35055,-2.235742 -9.45815,-5.260195 -13.10853,-6.491225 -3.57914,-1.20703 -8.42663,-2.310841 -12.10782,-2.75709 -4.55403,-0.552 -14.25517,-0.213921 -18.07018,0.629442 -11.3579,2.511345 -20.50266,7.865689 -29.69369,17.3859 -8.50538,8.81001 -13.2777,17.84009 -15.3961,29.13219 -0.77371,4.12422 -0.77223,14.8428 0.003,19.11545 1.8718,10.32124 5.69014,18.81528 12.11517,26.95067 0.93419,1.18288 1.78419,2.15486 1.88889,2.16 0.1047,0.004 13.2807,-12.9795 29.28,-28.8548 z m 200.53425,56.51993 c -17.34224,-2.10104 -32.90603,-11.55005 -44.23511,-26.85578 -7.77233,-10.50051 -11.7903,-21.27545 -12.8576,-34.48002 -0.89677,-11.09481 1.40509,-23.15709 6.26399,-32.82459 6.46017,-12.85354 17.91756,-24.248546 30.97672,-30.80803 19.9742,-10.032869 46.42937,-8.616718 64.72736,3.464958 8.17543,5.397996 15.65499,12.877872 21.0468,21.047662 11.54882,17.49906 13.33556,41.38938 4.58309,61.28001 -4.90332,11.14314 -14.19457,22.10702 -24.81869,29.28661 -8.33182,5.63052 -17.78881,9.01255 -28.12511,10.05816 -4.44942,0.4501 -13.14184,0.36661 -17.56145,-0.16895 z m 21.19536,-8.44676 c 14.56995,-3.11508 26.31241,-11.01834 35.59035,-23.954 11.74824,-16.37987 13.54792,-40.07203 4.42816,-58.29502 -7.10655,-14.20025 -19.80941,-25.548886 -33.82597,-30.21989 -6.55309,-2.183811 -9.1266,-2.555037 -17.71254,-2.555037 -8.58878,0 -11.12454,0.366237 -17.76,2.564145 -16.93277,5.609159 -32.17209,21.079632 -37.55361,38.123262 -2.80674,8.88915 -3.36162,20.00561 -1.46348,29.31988 4.49991,22.08147 23.29679,40.68362 45.45225,44.98144 4.78229,0.92768 4.87296,0.93358 12.60484,0.82148 5.69841,-0.0828 7.64982,-0.23244 10.24,-0.78626 z m 266.23996,8.59669 c -11.94157,-1.2556 -22.87744,-5.77111 -32.48118,-13.41173 -3.58972,-2.856 -9.83486,-9.31446 -12.69498,-13.12868 -7.36301,-9.81929 -11.52669,-20.14859 -12.92909,-32.0747 -0.55891,-4.75287 -0.22072,-15.19147 0.6398,-19.7506 1.39117,-7.37034 4.71141,-15.63311 8.83839,-21.99537 5.25271,-8.09775 14.24625,-16.89487 22.56087,-22.068174 6.85323,-4.264025 15.20651,-7.294601 23.82622,-8.644157 4.42575,-0.692901 15.5509,-0.765959 19.99997,-0.13115 14.06495,2.006362 25.73186,7.806425 36.43298,18.11229 11.61551,11.186491 18.09472,23.653951 20.01638,38.516071 2.76541,21.38755 -4.64886,41.87433 -20.71011,57.2253 -10.72743,10.25302 -22.81984,15.88399 -37.29313,17.36602 -3.80005,0.3891 -12.43888,0.38113 -16.20612,-0.0151 z m 19.83027,-8.58962 c 12.62831,-2.54098 23.69288,-9.26041 32.43281,-19.6961 9.44976,-11.28329 13.96872,-24.56477 13.39204,-39.36 -0.36095,-9.26014 -2.21552,-16.5374 -6.16169,-24.1779 -3.10594,-6.01365 -6.85251,-10.87865 -12.7019,-16.4936 -4.64171,-4.455643 -8.60802,-7.285451 -13.83152,-9.868154 -7.84871,-3.880743 -13.65532,-5.291452 -22.80268,-5.539955 -8.9893,-0.244158 -16.62682,1.123804 -23.75732,4.255294 -15.21501,6.68194 -28.06148,20.679725 -33.1028,36.069425 -2.10338,6.42112 -2.57284,9.70458 -2.57284,17.9949 0,6.40071 0.0956,7.8327 0.73263,10.98679 2.29137,11.34342 7.41467,20.87395 15.83315,29.45333 9.0816,9.25523 19.74539,14.79681 32.38988,16.83193 4.45383,0.71687 15.57188,0.46526 20.15024,-0.45596 z m -375.03022,8.08343 c -10.85193,-1.40807 -19.94505,-5.66952 -27.43235,-12.85599 -7.35652,-7.06099 -11.62193,-15.03001 -13.46774,-25.16171 l -0.69991,-3.84182 V 85.119987 0 h 4.48 4.48 l 0.16951,86.079987 0.16951,86.080023 0.681,2.71998 c 2.30335,9.19986 7.06345,16.47772 14.4503,22.09357 3.06722,2.33181 9.1761,5.26609 12.95439,6.22231 2.43478,0.61617 8.27521,1.4417 10.21527,1.44385 0.13202,1.5e-4 0.24,1.72827 0.24,3.84027 v 3.84 l -2.64,-0.048 c -1.452,-0.0265 -3.072,-0.10394 -3.6,-0.17235 z m 498.07996,-0.6268 c -7.72641,-0.72333 -12.77911,-2.04767 -18.40002,-4.82279 -12.96431,-6.40067 -21.74491,-17.483 -24.79125,-31.28995 -1.24286,-5.6329 -1.32105,-10.59477 -1.22305,-77.599977 l 0.0941,-64.480026 h 4.48002 4.47999 l 0.082,25.520013 0.082,25.520013 h 19.19808 19.19807 v 3.84 3.84 h -19.2 -19.2 l 0.001,38.319987 c 10e-4,42.50676 -0.0522,41.2938 2.11022,47.76 1.89136,5.65576 4.61568,9.97723 9.07794,14.4 6.04611,5.99259 12.88456,9.41306 21.45052,10.72917 1.67202,0.25701 3.724,0.46791 4.56,0.46893 l 1.52001,0.002 v 4.00002 3.99999 l -1.2,-0.051 c -0.65998,-0.0265 -1.704,-0.0983 -2.31999,-0.1561 z m 170.31917,-64.03272 0.081,-62.96001 4.3964,-0.0892 4.3963,-0.0892 0.083,12.728996 0.084,12.729024 0.8665,-1.64265 c 1.8151,-3.44115 5.5521,-8.599899 8.3489,-11.525442 8.0283,-8.39777 17.7215,-13.046891 30.6155,-14.684107 5.2166,-0.662362 14.8794,-0.506079 19.2795,0.311811 10.4857,1.949064 19.1725,6.277984 27.0318,13.470916 10.2159,9.349712 16.2792,21.455392 17.6821,35.303392 0.2139,2.11075 0.3356,17.12719 0.3356,41.36001 v 38.04609 h -4.4671 -4.467 l -0.1164,-39.6 c -0.1285,-43.59122 -0.023,-41.20592 -2.1422,-48.07998 -3.8642,-12.5286 -14.6206,-24.711792 -26.3272,-29.81937 -6.2862,-2.742614 -14.4393,-4.056151 -21.5199,-3.467074 -8.8348,0.735043 -15.6022,3.070035 -22.7133,7.836888 -11.854,7.946336 -19.1985,18.671276 -21.8106,31.849546 -0.4834,2.43844 -0.5522,6.78625 -0.665,42 l -0.1258,39.27999 h -4.4635 -4.4635 z M 0,146.88 V 84 h 4.6400013 4.6399974 l 0.015118,8.559987 0.015118,8.560023 0.8386323,-1.120023 c 0.46125,-0.615987 2.436824,-2.703987 4.390167,-4.639974 6.89122,-6.83006 15.693335,-11.594344 25.240853,-13.66201 2.663225,-0.576756 4.25653,-0.703861 8.700291,-0.693959 4.870631,0.01134 5.774921,0.102047 8.64,0.870728 4.361926,1.170444 10.077883,4.058683 14.25349,7.202192 6.276159,4.724901 11.137769,10.632869 14.519093,17.644046 l 1.699706,3.52433 0.725193,-2.00266 c 2.505529,-6.91925 7.770335,-13.883675 13.92251,-18.417067 8.34642,-6.150312 20.2826,-9.465298 32.16,-8.931667 11.14354,0.500674 20.34209,4.597191 28.51638,12.699553 6.06619,6.012813 9.47314,12.321451 11.54772,21.382831 l 0.71058,3.10367 0.10202,45.84 0.10203,45.84 h -4.48937 -4.48936 v -43.49684 c 0,-29.20887 -0.11275,-44.30733 -0.34318,-45.96416 -2.20343,-15.84204 -14.94717,-28.942187 -30.34496,-31.193652 -4.06926,-0.595011 -10.96458,-0.240378 -14.81773,0.762406 -6.09465,1.585928 -11.93049,4.963427 -17.07652,9.883049 -6.03941,5.773717 -9.525446,11.807017 -10.998407,19.034947 -0.646674,3.17329 -0.659207,4.06893 -0.659207,47.10452 V 209.76 h -4.633572 -4.633572 l -0.08644,-45.20001 -0.08644,-45.19998 -0.857983,-3.10586 C 78.754609,105.00491 69.659675,94.862362 59.127386,90.900699 54.761511,89.258494 52.76623,88.958135 46.400149,88.984781 c -5.309726,0.02268 -6.237309,0.109984 -8.998043,0.850923 -6.400849,1.717984 -11.769671,4.923968 -16.952337,10.123124 -5.187515,5.204032 -8.208208,10.194522 -10.117599,16.715342 l -0.8801536,3.00582 -0.09343,45.04002 -0.09343,45.03999 H 4.6326425 1.2472441e-4 Z"
         id="path3" /></pattern></defs><g
     inkscape:label="Layer 1"
     inkscape:groupmode="layer"
     id="layer1"><path
       style="fill:#e3b091;fill-opacity:1;stroke-width:0.999996"
       d="m 44.045631,91.263079 c -1.44929,-0.23836 -2.95594,-1.10288 -4.15502,-2.384722 -1.04463,-1.11669 -1.14586,-1.17699 -2.97951,-1.77447 -5.1335,-1.67275 -10.6044,-5.14106 -14.85752,-9.41887 -8.78989,-8.84099 -12.9995897,-20.58544 -11.61655,-32.40852 2.07637,-17.75036 13.88261,-30.21355 31.55893,-33.31489 4.518109,-0.79271 10.976659,-0.77029 14.747349,0.051 2.0249,0.44116 4.94527,0.51564 6.51597,0.16611 1.75496,-0.39047 3.17103,-1.29827 4.07696,-2.6136604 0.48742,-0.70772 0.76537,-0.96083 0.99048,-0.90199 0.27113,0.0711 0.29274,0.19032 0.16164,0.89152 -0.42578,2.2791704 -1.90945,4.0753904 -4.26743,5.1664304 -2.63675,1.22005 -2.71135,1.22634 -12.67857,1.06906 -4.66337,-0.0734 -6.682909,0.0834 -10.341939,0.8031 -7.0387,1.38478 -13.24294,4.32157 -18.07581,8.55626 -9.87861,8.65585 -13.6707197,23.92462 -8.96773,36.10814 3.99148,10.34026 13.11772,18.50657 24.26187,21.70992 2.62174,0.75364 3.38544,1.16937 4.38187,2.38539 1.26039,1.53812 2.225879,1.70218 3.778819,0.64213 1.7602,-1.2015 2.04698,-1.29487 4.77137,-1.55316 5.99344,-0.56827 11.67242,-2.19794 17.42842,-5.00136 8.7509,-4.26206 14.50411,-10.40656 17.06112,-18.22147 1.97839,-6.04651 1.9661,-15.49741 -0.0261,-21.17572 -2.00348,-5.7064 -5.45112,-9.53784 -11.02325,-12.25046 -7.88306,-3.83758 -18.97421,-5.03167 -26.93005,-2.89932 -8.612539,2.30833 -14.678339,7.75513 -17.254119,15.49336 -0.95327,2.8639 -1.198,4.54157 -1.25976,8.63707 -0.0454,3.01237 -0.0983,3.63315 -0.31397,3.67788 -0.30279,0.063 -0.8025,-1.3167 -1.36426,-3.76626 -0.53978,-2.35369 -0.66723,-6.87296 -0.2622,-9.30025 1.9404,-11.63104 11.73715,-19.92551 25.235219,-21.3656 5.131,-0.54741 11.17464,0.20522 16.9565,2.11098 14.39144,4.74411 21.09293,15.06344 20.13284,31.00153 -0.40346,6.69706 -1.30191,10.62887 -3.454,15.11506 -1.79797,3.74805 -4.06023,6.8292 -7.35464,10.01702 -6.96678,6.74134 -17.03684,11.444 -26.82011,12.52487 -1.97336,0.21788 -2.10524,0.25885 -3.0949,0.95837 -1.57502,1.113312 -3.26368,1.544042 -4.960309,1.265192 z"
       id="path117" /></g></svg>
